<svg xmlns="http://www.w3.org/2000/svg" xmlns:xlink="http://www.w3.org/1999/xlink" viewBox="0 0 1262.99 412.42"><defs><style>.cls-1{fill:url(#linear-gradient);}.cls-2{fill:url(#linear-gradient-2);}.cls-3{fill:url(#linear-gradient-3);}.cls-4{fill:url(#linear-gradient-4);}.cls-5{fill:url(#linear-gradient-5);}.cls-6{fill:url(#linear-gradient-6);}.cls-7{fill:url(#linear-gradient-7);}.cls-8{fill:url(#linear-gradient-8);}.cls-9{fill:url(#linear-gradient-9);}.cls-10{fill:url(#linear-gradient-10);}.cls-11{fill:url(#linear-gradient-11);}.cls-12{fill:url(#linear-gradient-12);}.cls-13,.cls-14{fill:none;}.cls-13{clip-rule:evenodd;}.cls-15{isolation:isolate;}.cls-16{fill:#808183;}.cls-17{fill:#b01728;}.cls-18{clip-path:url(#clip-path);}.cls-19{clip-path:url(#clip-path-2);}.cls-20{fill:#ec8c2f;}.cls-21{fill:#ec8d2f;}.cls-22{fill:#ec8e2f;}.cls-23{fill:#ec8f2f;}.cls-24{fill:#ec902f;}.cls-25{fill:#ec912f;}.cls-26{fill:#ec922f;}.cls-27{fill:#ec932f;}.cls-28{fill:#ec942f;}.cls-29{fill:#ec952f;}.cls-30{fill:#ec952e;}.cls-31{fill:#ec962e;}.cls-32{fill:#ec972e;}.cls-33{fill:#ec982e;}.cls-34{fill:#ec992e;}.cls-35{fill:#ec9a2e;}.cls-36{fill:#ec9b2e;}.cls-37{fill:#ed9c2e;}.cls-38{fill:#ec9c2e;}.cls-39{fill:#ec9d2e;}.cls-40{fill:#ec9e2e;}.cls-41{fill:#ec9f2e;}.cls-42{fill:#eca02e;}.cls-43{fill:#eda12e;}.cls-44{fill:#eda22e;}.cls-45{fill:#eca32e;}.cls-46{fill:#eca42e;}.cls-47{fill:#eca52e;}.cls-48{fill:#eca62d;}.cls-49{fill:#eda72d;}.cls-50{fill:#eda82d;}.cls-51{fill:#eda92d;}.cls-52{fill:#ecaa2e;}.cls-53{fill:#ecaa2d;}.cls-54{fill:#ecab2d;}.cls-55{fill:#ecac2d;}.cls-56{fill:#edad2d;}.cls-57{fill:#edae2d;}.cls-58{fill:#edaf2d;}.cls-59{fill:#edb02d;}.cls-60{fill:#ecb12d;}.cls-61{fill:#edb12d;}.cls-62{fill:#edb22d;}.cls-63{fill:#edb32d;}.cls-64{fill:#edb42d;}.cls-65{fill:#edb52d;}.cls-66{fill:#edb62d;}.cls-67{fill:#edb62c;}.cls-68{fill:#edb72c;}.cls-69{fill:#edb82c;}.cls-70{fill:#edb92c;}.cls-71{fill:#edba2c;}.cls-72{fill:#edbb2c;}.cls-73{fill:#edbc2c;}.cls-74{fill:#edbc2b;}.cls-75{fill:#edbd2b;}.cls-76{fill:#edbe2b;}.cls-77{fill:#edbe2c;}.cls-78{fill:#edbf2b;}.cls-79{fill:#edc02b;}.cls-80{fill:#edc12b;}.cls-81{fill:#edc22b;}.cls-82{fill:#eec32b;}.cls-83{fill:#eec42b;}.cls-84{fill:#eec52b;}.cls-85{fill:#edc52b;}.cls-86{fill:#edc62b;}.cls-87{fill:#edc629;}.cls-88{fill:#edc729;}.cls-89{fill:#eec829;}.cls-90{fill:#eec929;}.cls-91{fill:#eeca29;}.cls-92{fill:#eecb29;}.cls-93{fill:#edcc29;}.cls-94{fill:#edcd29;}.cls-95{fill:#eece28;}.cls-96{fill:#eecf28;}.cls-97{fill:#eed028;}.cls-98{fill:#eed128;}.cls-99{fill:#eed228;}.cls-100{fill:#edd228;}.cls-101{fill:#edd328;}.cls-102{fill:#eed328;}.cls-103{fill:#eed428;}.cls-104{fill:#eed527;}.cls-105{fill:#eed626;}.cls-106{fill:#eed725;}.cls-107{fill:#eed825;}.cls-108{fill:#eed925;}.cls-109{fill:#eeda25;}.cls-110{fill:#eedb25;}.cls-111{fill:#eedc25;}.cls-112{fill:#eedd24;}.cls-113{fill:#eede24;}.cls-114{fill:#efdf24;}.cls-115{mask:url(#mask);}.cls-116{fill:#ed312d;}.cls-116,.cls-120,.cls-205,.cls-209{fill-rule:evenodd;}.cls-117{mask:url(#mask-2);}.cls-118{mask:url(#mask-3);}.cls-119{mask:url(#mask-4);}.cls-120{fill:#eee820;}.cls-121{mask:url(#mask-5);}.cls-122{clip-path:url(#clip-path-3);}.cls-123{clip-path:url(#clip-path-4);}.cls-124{fill:#4e4098;}.cls-125{fill:#4f3f98;}.cls-126{fill:#503f98;}.cls-127{fill:#513e97;}.cls-128{fill:#523d97;}.cls-129{fill:#543e97;}.cls-130{fill:#553e97;}.cls-131{fill:#563f98;}.cls-132{fill:#573f98;}.cls-133{fill:#583f98;}.cls-134{fill:#593f98;}.cls-135{fill:#5a3f98;}.cls-136{fill:#5b4098;}.cls-137{fill:#5c4098;}.cls-138{fill:#5d4198;}.cls-139{fill:#5e4198;}.cls-140{fill:#5f4198;}.cls-141{fill:#5f4199;}.cls-142{fill:#604199;}.cls-143{fill:#614199;}.cls-144{fill:#624299;}.cls-145{fill:#634299;}.cls-146{fill:#644399;}.cls-147{fill:#654399;}.cls-148{fill:#66439a;}.cls-149{fill:#67439a;}.cls-150{fill:#68439a;}.cls-151{fill:#68449a;}.cls-152{fill:#69449a;}.cls-153{fill:#6a449a;}.cls-154{fill:#6b459a;}.cls-155{fill:#6c459a;}.cls-156{fill:#6d469b;}.cls-157{fill:#6e469b;}.cls-158{fill:#6f469b;}.cls-159{fill:#70469b;}.cls-160{fill:#71469b;}.cls-161{fill:#72479b;}.cls-162{fill:#73479b;}.cls-163{fill:#74489b;}.cls-164{fill:#75489b;}.cls-165{fill:#76499c;}.cls-166{fill:#77499c;}.cls-167{fill:#78499c;}.cls-168{fill:#79499c;}.cls-169{fill:#7a499c;}.cls-170{fill:#7a4a9c;}.cls-171{fill:#7b4a9c;}.cls-172{fill:#7c4a9c;}.cls-173{fill:#7c4b9d;}.cls-174{fill:#7d4b9d;}.cls-175{fill:#7e4b9d;}.cls-176{fill:#7e4c9d;}.cls-177{fill:#7f4c9d;}.cls-178{fill:#804c9d;}.cls-179{fill:#814c9d;}.cls-180{fill:#824d9e;}.cls-181{fill:#834d9e;}.cls-182{fill:#844e9e;}.cls-183{fill:#854e9e;}.cls-184{fill:#864f9e;}.cls-185{fill:#874f9e;}.cls-186{fill:#884f9e;}.cls-187{fill:#88509f;}.cls-188{fill:#89509f;}.cls-189{fill:#8a509f;}.cls-190{fill:#8a519f;}.cls-191{fill:#8b519f;}.cls-192{fill:#8c519f;}.cls-193{fill:#8c529f;}.cls-194{fill:#8d529f;}.cls-195{fill:#8e529f;}.cls-196{fill:#8f52a0;}.cls-197{fill:#9052a0;}.cls-198{fill:#9153a0;}.cls-199{fill:#9253a0;}.cls-200{fill:#9354a0;}.cls-201{fill:#9454a0;}.cls-202{fill:#9555a1;}.cls-203{fill:#9655a1;}.cls-204{mask:url(#mask-6);}.cls-205{fill:#f6b1cf;}.cls-206{mask:url(#mask-7);}.cls-207{mask:url(#mask-8);}.cls-208{mask:url(#mask-9);}.cls-209{fill:#0f073a;}.cls-210{mask:url(#mask-10);}.cls-211{mask:url(#mask-11);}.cls-212{mask:url(#mask-12);}.cls-213{clip-path:url(#clip-path-5);}.cls-214{fill:#cbde7d;}.cls-215{fill:#cade7d;}.cls-216{fill:#c9de7e;}.cls-217{fill:#c8dd7e;}.cls-218{fill:#c7dd7e;}.cls-219{fill:#c6dd7f;}.cls-220{fill:#c5dc80;}.cls-221{fill:#c4dc80;}.cls-222{fill:#c3dc80;}.cls-223{fill:#c2db81;}.cls-224{fill:#c0db81;}.cls-225{fill:#bfda82;}.cls-226{fill:#beda83;}.cls-227{fill:#bdda83;}.cls-228{fill:#bcd984;}.cls-229{fill:#bbd984;}.cls-230{fill:#bad985;}.cls-231{fill:#b9d885;}.cls-232{fill:#b8d886;}.cls-233{fill:#b7d887;}.cls-234{fill:#b6d787;}.cls-235{fill:#b5d788;}.cls-236{fill:#b4d788;}.cls-237{fill:#b3d789;}.cls-238{fill:#b2d689;}.cls-239{fill:#b0d68a;}.cls-240{fill:#afd68a;}.cls-241{fill:#aed58b;}.cls-242{fill:#add58c;}.cls-243{fill:#acd58c;}.cls-244{fill:#abd48c;}.cls-245{fill:#aad48d;}.cls-246{fill:#a9d48e;}.cls-247{fill:#a8d38e;}.cls-248{fill:#a7d38f;}.cls-249{fill:#a6d38f;}.cls-250{fill:#a5d28f;}.cls-251{fill:#a4d290;}.cls-252{fill:#a2d291;}.cls-253{fill:#a1d291;}.cls-254{fill:#a0d192;}.cls-255{fill:#9fd192;}.cls-256{fill:#9ed192;}.cls-257{fill:#9dd093;}.cls-258{fill:#9cd094;}.cls-259{fill:#9bd094;}.cls-260{fill:#9acf94;}.cls-261{fill:#99cf95;}.cls-262{fill:#98cf96;}.cls-263{fill:#97ce96;}.cls-264{fill:#95ce97;}.cls-265{fill:#94ce97;}.cls-266{fill:#93ce97;}.cls-267{fill:#92cd98;}.cls-268{fill:#91cd99;}.cls-269{fill:#90cd99;}.cls-270{fill:#8fcc99;}.cls-271{fill:#8ecc9a;}.cls-272{fill:#8ccc9a;}.cls-273{fill:#8bcc9b;}.cls-274{fill:#8acb9b;}.cls-275{fill:#89cb9b;}.cls-276{fill:#88cb9c;}.cls-277{fill:#87ca9d;}.cls-278{fill:#85ca9d;}.cls-279{fill:#84ca9d;}.cls-280{fill:#83ca9e;}.cls-281{fill:#82c99f;}.cls-282{fill:#81c99f;}.cls-283{fill:#80c9a0;}.cls-284{fill:#7fc8a0;}.cls-285{fill:#7ec8a0;}.cls-286{fill:#7dc8a1;}.cls-287{fill:#7cc8a2;}.cls-288{fill:#7bc7a2;}.cls-289{fill:#79c7a2;}.cls-290{fill:#78c7a3;}.cls-291{fill:#77c7a3;}.cls-292{fill:#76c6a4;}.cls-293{fill:#74c6a4;}.cls-294{fill:#73c6a5;}.cls-295{fill:#72c5a5;}.cls-296{fill:#71c5a6;}.cls-297{fill:#6fc5a6;}.cls-298{fill:#6ec5a6;}.cls-299{fill:#6dc4a7;}.cls-300{fill:#6bc4a8;}.cls-301{fill:#6ac4a8;}.cls-302{fill:#69c4a8;}.cls-303{fill:#67c3a9;}.cls-304{fill:#64c3a9;}.cls-305{fill:#63c3aa;}.cls-306{fill:#61c2aa;}.cls-307{fill:#60c2ab;}.cls-308{fill:#5ec2ab;}.cls-309{fill:#5dc2ac;}.cls-310{fill:#5bc1ac;}.cls-311{fill:#5ac1ac;}.cls-312{fill:#58c1ad;}.cls-313{fill:#56c1ae;}.cls-314{fill:#55c0ae;}.cls-315{fill:#53c0ae;}.cls-316{fill:#51c0af;}.cls-317{fill:#4fc0af;}.cls-318{fill:#4dbfb0;}.cls-319{fill:#4cbfb0;}.cls-320{fill:#4abfb0;}.cls-321{fill:#48bfb1;}.cls-322{fill:#46beb2;}.cls-323{fill:#43beb2;}.cls-324{fill:#42beb2;}.cls-325{fill:#3fbeb3;}.cls-326{fill:#3dbdb3;}.cls-327{fill:#3bbdb3;}.cls-328{fill:#38bdb4;}.cls-329{fill:#36bcb5;}.cls-330{fill:#33bcb5;}.cls-331{fill:#30bcb5;}.cls-332{fill:#2dbcb6;}.cls-333{fill:#2abbb6;}.cls-334{fill:#26bbb7;}.cls-335{fill:#22bbb7;}.cls-336{fill:#1ebbb7;}.cls-337{fill:#18bab8;}.cls-338{fill:#12bab9;}.cls-339{fill:#07bab9;}.cls-340{fill:#00bab9;}.cls-341{fill:#00baba;}.cls-342{fill:#00b9bb;}.cls-343{fill:#00b9ba;}.cls-344{fill:#00b9bc;}.cls-345{fill:#00b8bc;}.cls-346{fill:#00b8bd;}.cls-347{mix-blend-mode:multiply;}.cls-348{fill:#cce1c7;}.cls-349{clip-path:url(#clip-path-6);}.cls-350{fill:#a973b0;}.cls-351{fill:#a972b0;}.cls-352{fill:#a872b0;}.cls-353{fill:#a771af;}.cls-354{fill:#a671af;}.cls-355{fill:#a670af;}.cls-356{fill:#a570af;}.cls-357{fill:#a470af;}.cls-358{fill:#a36fae;}.cls-359{fill:#a26eae;}.cls-360{fill:#a16dad;}.cls-361{fill:#a06dad;}.cls-362{fill:#a06cad;}.cls-363{fill:#9f6cad;}.cls-364{fill:#9e6bad;}.cls-365{fill:#9e6bac;}.cls-366{fill:#9d6bac;}.cls-367{fill:#9c6aac;}.cls-368{fill:#9b6aac;}.cls-369{fill:#9b69ab;}.cls-370{fill:#9a68ab;}.cls-371{fill:#9968ab;}.cls-372{fill:#9867ab;}.cls-373{fill:#9766aa;}.cls-374{fill:#9666aa;}.cls-375{fill:#9565aa;}.cls-376{fill:#9465aa;}.cls-377{fill:#9364a9;}.cls-378{fill:#9363a9;}.cls-379{fill:#9263a9;}.cls-380{fill:#9162a8;}.cls-381{fill:#9062a8;}.cls-382{fill:#8f61a8;}.cls-383{fill:#8e61a8;}.cls-384{fill:#8e60a7;}.cls-385{fill:#8d60a7;}.cls-386{fill:#8c5fa7;}.cls-387{fill:#8b5fa6;}.cls-388{fill:#8a5ea6;}.cls-389{fill:#895da6;}.cls-390{fill:#885da6;}.cls-391{fill:#875ca5;}.cls-392{fill:#865ba5;}.cls-393{fill:#855ba5;}.cls-394{fill:#845aa4;}.cls-395{fill:#835aa4;}.cls-396{fill:#8359a4;}.cls-397{fill:#8258a3;}.cls-398{fill:#8158a3;}.cls-399{fill:#8057a3;}.cls-400{fill:#8056a2;}.cls-401{fill:#7f56a2;}.cls-402{fill:#7e55a2;}.cls-403{fill:#7d54a2;}.cls-404{fill:#7c54a1;}.cls-405{fill:#7b53a1;}.cls-406{fill:#7a53a1;}.cls-407{fill:#7a52a1;}.cls-408{fill:#7952a0;}.cls-409{fill:#7852a0;}.cls-410{fill:#7851a0;}.cls-411{fill:#7751a0;}.cls-412{fill:#7650a0;}.cls-413{fill:#764f9f;}.cls-414{fill:#754f9f;}.cls-415{fill:#744f9f;}.cls-416{fill:#734f9f;}.cls-417{fill:#734e9f;}.cls-418{fill:#724d9e;}.cls-419{fill:#714d9e;}.cls-420{fill:#714c9e;}.cls-421{fill:#704c9e;}.cls-422{fill:#6f4c9e;}.cls-423{fill:#6f4b9d;}.cls-424{fill:#6e4b9d;}.cls-425{fill:#6d4a9d;}.cls-426{fill:#6c4a9d;}.cls-427{fill:#ced0cf;}.cls-428{clip-path:url(#clip-path-7);}.cls-429{fill:#fdc364;}.cls-430{fill:#fdc265;}.cls-431{fill:#fdc165;}.cls-432{fill:#fdc065;}.cls-433{fill:#fcc065;}.cls-434{fill:#fcbf65;}.cls-435{fill:#fcbe66;}.cls-436{fill:#fcbd65;}.cls-437{fill:#fcbc66;}.cls-438{fill:#fcbb66;}.cls-439{fill:#fcba66;}.cls-440{fill:#fbb966;}.cls-441{fill:#fbb867;}.cls-442{fill:#fbb766;}.cls-443{fill:#fbb667;}.cls-444{fill:#fbb567;}.cls-445{fill:#fbb467;}.cls-446{fill:#fab367;}.cls-447{fill:#fab267;}.cls-448{fill:#fab167;}.cls-449{fill:#fab068;}.cls-450{fill:#faaf67;}.cls-451{fill:#f9ae68;}.cls-452{fill:#f9ad68;}.cls-453{fill:#f9ac68;}.cls-454{fill:#f9ab68;}.cls-455{fill:#f9aa68;}.cls-456{fill:#f9a968;}.cls-457{fill:#f9a869;}.cls-458{fill:#f9a868;}.cls-459{fill:#f8a768;}.cls-460{fill:#f8a669;}.cls-461{fill:#f8a568;}.cls-462{fill:#f8a569;}.cls-463{fill:#f8a469;}.cls-464{fill:#f8a369;}.cls-465{fill:#f8a269;}.cls-466{fill:#f8a169;}.cls-467{fill:#f8a069;}.cls-468{fill:#f7a069;}.cls-469{fill:#f79f69;}.cls-470{fill:#f79e69;}.cls-471{fill:#f79d69;}.cls-472{fill:#f79c69;}.cls-473{fill:#f79b69;}.cls-474{fill:#f79a69;}.cls-475{fill:#f69969;}.cls-476{fill:#f69869;}.cls-477{fill:#f69769;}.cls-478{fill:#f69669;}.cls-479{fill:#f69569;}.cls-480{fill:#f69469;}.cls-481{fill:#f6946a;}.cls-482{fill:#f69369;}.cls-483{fill:#f69269;}.cls-484{fill:#f5926a;}.cls-485{fill:#f59169;}.cls-486{fill:#f59069;}.cls-487{fill:#f58f6a;}.cls-488{fill:#f58f69;}.cls-489{fill:#f58e69;}.cls-490{fill:#f58d69;}.cls-491{fill:#f58c6a;}.cls-492{fill:#f58b69;}.cls-493{fill:#f58a6a;}.cls-494{fill:#f48969;}.cls-495{fill:#f48869;}.cls-496{fill:#f48769;}.cls-497{fill:#f4866a;}.cls-498{fill:#f48669;}.cls-499{fill:#f48569;}.cls-500{fill:#f48469;}.cls-501{fill:#f48369;}.cls-502{fill:#f48269;}.cls-503{fill:#f38169;}.cls-504{fill:#f38069;}.cls-505{fill:#f37f69;}.cls-506{fill:#f37e69;}.cls-507{fill:#f37d69;}.cls-508{fill:#f37c69;}.cls-509{fill:#f37b69;}.cls-510{fill:#f37a69;}.cls-511{fill:#f27a69;}.cls-512{fill:#f27969;}.cls-513{fill:#f27869;}.cls-514{fill:#f27769;}.cls-515{fill:#f27669;}.cls-516{fill:#f27569;}.cls-517{fill:#f27469;}.cls-518{fill:#f27369;}.cls-519{fill:#f27268;}.cls-520{fill:#f27169;}.cls-521{fill:#f27068;}.cls-522{fill:#f16f68;}.cls-523{fill:#f16d68;}.cls-524{fill:#f16c68;}.cls-525{fill:#f16b68;}.cls-526{fill:#f16a68;}.cls-527{fill:#f16968;}.cls-528{fill:#f16867;}.cls-529{fill:#f16768;}.cls-530{fill:#f06667;}.cls-531{fill:#f06568;}.cls-532{fill:#f06467;}.cls-533{fill:#f06367;}.cls-534{fill:#f06267;}.cls-535{fill:#f06167;}.cls-536{fill:#f06067;}.cls-537{fill:#f05f67;}.cls-538{fill:#f05e67;}.cls-539{fill:#f05d67;}</style><linearGradient id="linear-gradient" x1="197.98" y1="474.53" x2="167.17" y2="440.72" gradientTransform="translate(81.66 -334.35)" gradientUnits="userSpaceOnUse"><stop offset="0" stop-color="#fff"/><stop offset="0.12" stop-color="#d6d6d6"/><stop offset="0.37" stop-color="#8b8b8b"/><stop offset="0.59" stop-color="#4f4f4f"/><stop offset="0.77" stop-color="#242424"/><stop offset="0.91" stop-color="#0a0a0a"/><stop offset="1"/></linearGradient><linearGradient id="linear-gradient-2" x1="208.57" y1="491.51" x2="164.24" y2="439.42" gradientTransform="translate(88.44 -334.56)" gradientUnits="userSpaceOnUse"><stop offset="0" stop-color="#fff"/><stop offset="0.02" stop-color="#f3f3f3"/><stop offset="0.14" stop-color="#bbb"/><stop offset="0.25" stop-color="#898989"/><stop offset="0.37" stop-color="#5f5f5f"/><stop offset="0.49" stop-color="#3d3d3d"/><stop offset="0.61" stop-color="#222"/><stop offset="0.74" stop-color="#0f0f0f"/><stop offset="0.86" stop-color="#040404"/><stop offset="1"/></linearGradient><linearGradient id="linear-gradient-3" x1="204.05" y1="484.45" x2="182.89" y2="453.85" gradientTransform="translate(81.66 -329.67)" gradientUnits="userSpaceOnUse"><stop offset="0" stop-color="#fff"/><stop offset="0.06" stop-color="#ececec"/><stop offset="0.33" stop-color="#999"/><stop offset="0.57" stop-color="#575757"/><stop offset="0.76" stop-color="#282828"/><stop offset="0.91" stop-color="#0b0b0b"/><stop offset="1"/></linearGradient><linearGradient id="linear-gradient-4" x1="151.65" y1="426.7" x2="185.21" y2="451.36" gradientTransform="translate(80.93 -334.53)" gradientUnits="userSpaceOnUse"><stop offset="0" stop-color="#fff"/><stop offset="0.21" stop-color="#b7b7b7"/><stop offset="0.42" stop-color="#777"/><stop offset="0.61" stop-color="#444"/><stop offset="0.78" stop-color="#1f1f1f"/><stop offset="0.91" stop-color="#080808"/><stop offset="1"/></linearGradient><linearGradient id="linear-gradient-5" x1="176.3" y1="491.6" x2="172.67" y2="451.94" gradientTransform="translate(80.98 -334.35)" gradientUnits="userSpaceOnUse"><stop offset="0" stop-color="#fff"/><stop offset="0.07" stop-color="#e6e6e6"/><stop offset="0.27" stop-color="#a1a1a1"/><stop offset="0.46" stop-color="#686868"/><stop offset="0.63" stop-color="#3b3b3b"/><stop offset="0.78" stop-color="#1b1b1b"/><stop offset="0.91" stop-color="#070707"/><stop offset="1"/></linearGradient><linearGradient id="linear-gradient-6" x1="171.27" y1="418.31" x2="184.23" y2="458.92" gradientTransform="translate(83.49 -351.15)" gradientUnits="userSpaceOnUse"><stop offset="0" stop-color="#fff"/><stop offset="1"/></linearGradient><linearGradient id="linear-gradient-7" x1="184.56" y1="476.54" x2="175.2" y2="443.47" gradientTransform="translate(95.64 -351.15)" xlink:href="#linear-gradient-6"/><linearGradient id="linear-gradient-8" x1="164.55" y1="416.4" x2="179.25" y2="450.56" gradientTransform="translate(95.64 -341.03)" xlink:href="#linear-gradient-6"/><linearGradient id="linear-gradient-9" x1="156.06" y1="430.29" x2="181.3" y2="454.38" gradientTransform="translate(95.64 -349.29)" xlink:href="#linear-gradient-6"/><linearGradient id="linear-gradient-10" x1="157.48" y1="491.45" x2="177.31" y2="437.25" gradientTransform="translate(95.64 -335.75)" gradientUnits="userSpaceOnUse"><stop offset="0" stop-color="#fff"/><stop offset="0.05" stop-color="#e0e0e0"/><stop offset="0.16" stop-color="#acacac"/><stop offset="0.26" stop-color="#7e7e7e"/><stop offset="0.37" stop-color="#575757"/><stop offset="0.48" stop-color="#383838"/><stop offset="0.6" stop-color="#1f1f1f"/><stop offset="0.72" stop-color="#0e0e0e"/><stop offset="0.85" stop-color="#030303"/><stop offset="1"/></linearGradient><linearGradient id="linear-gradient-11" x1="218.12" y1="493.2" x2="181.98" y2="449.8" gradientTransform="translate(81.66 -329.67)" xlink:href="#linear-gradient-6"/><linearGradient id="linear-gradient-12" x1="170.51" y1="479.92" x2="184.14" y2="445.21" gradientTransform="translate(81.66 -329.67)" xlink:href="#linear-gradient-10"/><clipPath id="clip-path"><path class="cls-13" d="M257.15,111.36a14.25,14.25,0,0,1,6.71-12.18A13.4,13.4,0,0,1,281,101.71a19.57,19.57,0,0,0-35.72,2.05,21.28,21.28,0,0,0-.52,14.29,13.68,13.68,0,0,0,12.12,7.48,13.33,13.33,0,0,0,7-2,14.25,14.25,0,0,1-6.71-12.18"/></clipPath><clipPath id="clip-path-2"><rect class="cls-14" x="243.72" y="91.08" width="37.23" height="34.46"/></clipPath><mask id="mask" x="244.71" y="99.18" width="19.15" height="26.35" maskUnits="userSpaceOnUse"><rect class="cls-1" x="244.71" y="99.18" width="19.15" height="26.35"/></mask><mask id="mask-2" x="254" y="99.18" width="9.86" height="26.06" maskUnits="userSpaceOnUse"><rect class="cls-2" x="254" y="99.18" width="9.86" height="26.06"/></mask><mask id="mask-3" x="243.79" y="113.32" width="20.07" height="12.22" maskUnits="userSpaceOnUse"><rect class="cls-5" x="243.79" y="113.32" width="20.07" height="12.22"/></mask><mask id="mask-4" x="247.22" y="91.08" width="33.74" height="10.63" maskUnits="userSpaceOnUse"><rect class="cls-6" x="247.22" y="91.08" width="33.74" height="10.63"/></mask><mask id="mask-5" x="263.86" y="94.03" width="17.09" height="7.68" maskUnits="userSpaceOnUse"><rect class="cls-7" x="263.86" y="94.03" width="17.09" height="7.68"/></mask><clipPath id="clip-path-3"><path class="cls-13" d="M263.86,99.18a14.41,14.41,0,0,1,0,24.36,13.33,13.33,0,0,1-7,2,13.68,13.68,0,0,1-12.12-7.48,19.62,19.62,0,0,0,36.86,2.23,21.24,21.24,0,0,0-.62-18.57,13.4,13.4,0,0,0-17.09-2.53"/></clipPath><clipPath id="clip-path-4"><rect class="cls-14" x="244.71" y="97.18" width="38.7" height="34.99"/></clipPath><mask id="mask-6" x="263.86" y="97.18" width="19.55" height="18.87" maskUnits="userSpaceOnUse"><rect class="cls-8" x="263.86" y="97.18" width="19.55" height="18.87"/></mask><mask id="mask-7" x="263.86" y="97.18" width="17.09" height="7.17" maskUnits="userSpaceOnUse"><rect class="cls-9" x="263.86" y="97.18" width="17.09" height="7.17"/></mask><mask id="mask-8" x="263.86" y="99.17" width="10.96" height="24.37" maskUnits="userSpaceOnUse"><rect class="cls-10" x="263.86" y="99.17" width="10.95" height="24.37"/></mask><mask id="mask-9" x="244.71" y="99.18" width="30.43" height="32.99" maskUnits="userSpaceOnUse"><rect class="cls-11" x="244.71" y="99.18" width="30.43" height="32.99"/></mask><mask id="mask-10" x="244.71" y="118.05" width="34.65" height="14.12" maskUnits="userSpaceOnUse"><rect class="cls-12" x="244.71" y="118.05" width="34.65" height="14.12"/></mask><mask id="mask-11" x="244.71" y="114.51" width="38.51" height="17.66" maskUnits="userSpaceOnUse"><rect class="cls-3" x="244.71" y="114.51" width="38.51" height="17.66"/></mask><mask id="mask-12" x="243.72" y="91.08" width="21.27" height="34.21" maskUnits="userSpaceOnUse"><rect class="cls-4" x="243.72" y="91.08" width="21.27" height="34.21"/></mask><clipPath id="clip-path-5"><path class="cls-14" d="M225,287.64a59.94,59.94,0,0,0,13.51-34.22v-1a45.3,45.3,0,0,1-10.71,15.19c-8.7,8-20.34,12.11-34,12.11a73.29,73.29,0,0,1-9.21-.59c-24.89-3.07-37.94-23.4-44.15-37.84.3,33.57,17.21,56.28,46.54,59.85C195.38,301.72,213.63,301.15,225,287.64Z"/></clipPath><clipPath id="clip-path-6"><path class="cls-14" d="M281.36,136.37h-.19a34.71,34.71,0,0,0-25,10.73A37.27,37.27,0,0,0,245.78,173v76.2c-.2,9.8-2.85,44.59-30.22,53.78,0,0,24.06,2.18,43.15-7.1A35.23,35.23,0,0,0,271,287.64a37,37,0,0,0,9.73-19v0h0a38.87,38.87,0,0,0,.63-6.88Z"/></clipPath><clipPath id="clip-path-7"><path class="cls-14" d="M208.61,265.63c-21,0-33-13.89-33-38.66V136.38a34.66,34.66,0,0,0-24.92,10.72A37.22,37.22,0,0,0,140.37,173v38.65c.42,10.3,3.56,33.87,22.56,50.28a42.86,42.86,0,0,0,22.2,9.6c15,1.86,27.75-1.09,37.1-8.42A36.76,36.76,0,0,1,208.61,265.63Z"/></clipPath></defs><g class="cls-15"><g id="레이어_1" data-name="레이어 1"><path class="cls-16" d="M1063.21,282.11h35.07v11.42h-35.07Zm-17-21.84v31.65c0,6.57,4.77,11.17,11.93,11.17h57.07V260.27h-17v12.29h-35.06V260.27Zm10.18-50.39c6.53,0,11.93,7.33,11.93,16.64s-5.52,16.62-11.93,16.62-11.81-7.31-11.81-16.62,5.52-16.64,11.81-16.64m43-9.54v20.22H1084.7c-3-11.67-14.45-20.22-28.27-20.22-15.84,0-28.79,11.66-28.79,26s12.95,26.06,28.79,26.06c14.71,0,26.64-9.8,28.65-22.46h14.33v23.58h17V200.34Zm-91.25,0h-17V303.09h17V234.34h17V224.9h-17Zm-64.59.09v19.73c0,19.61-12.44,35-26.14,37.6l8.3,7.2c11.06-1,24-10.92,26.51-20.35,2.64,9.43,15.59,19.48,26.52,20.35l8.29-7.2c-13.69-2.6-26.26-17.87-26.26-37.6V200.43Zm-90.73,8.46c5,0,9.17,5.22,9.17,12.17s-4.14,12.16-9.17,12.16-9.3-5.21-9.3-12.16,4.15-12.17,9.3-12.17m0-9.06c-14.34,0-25.64,9.57-25.64,21.23s11.3,21.09,25.64,21.09,25.51-9.3,25.51-21.09S867,199.83,852.84,199.83M821,245.75v8.94h23.12v15.14h17V254.69h26v-8.94Zm73.52-45.41v60.43H871.69v8.31h22.87v9.43h17V200.34Zm-37.7,74.58h-17v17c0,6.95,5,11.17,11.81,11.17h63.34v-9.56H856.86ZM724,209.79h19.62v10.05c0,19.48-12.45,34.87-26.27,37.48l8.42,7.2c10.93-1,24-10.92,26.51-20.23,2.64,9.31,15.59,19.36,26.52,20.23l8.3-7.2c-13.71-2.61-26.27-17.87-26.27-37.48V209.79h19.73v-9.43H724Zm85.34-9.45h-17V303.09h17Z"/><path class="cls-17" d="M707.33,200.15h-17v76h17Zm-55.87,66.24h-17v25.34c0,6.95,4.9,11.17,11.67,11.17h61.26v-9.55h-56Zm-12.51-66V217c0,18.73-12.42,31.76-26.23,34.37l8.41,7.07c10.41-1.11,23.72-10.05,26.35-18.86,3,8.81,15.95,17.87,26.62,18.86l8.16-7.07C668.7,248.73,656.15,236,656.15,217V200.34Zm-92.76,22.15c5.4,0,9.92,6.45,9.92,14.14s-4.52,14.27-9.92,14.27-9.92-6.45-9.92-14.27,4.65-14.14,9.92-14.14m41,20.72H571.17a23.46,23.46,0,0,0,1-6.58,29.27,29.27,0,0,0-.25-3.22h15.32Zm-11-23.33V210.7H554.73V200.31h-17V210.7H516.31v9.18h12.43c-5.28,4.22-8.54,10.17-8.54,16.75,0,12.66,11.8,23.08,26,23.08A27.29,27.29,0,0,0,565,252.39h22.22v7.45h16.94V200H587.24v24.2H567.77a21.48,21.48,0,0,0-4-4.34Zm11,82.9h16.94V266.54H528.49V276h58.75ZM440.62,222.49c5.4,0,9.92,6.45,9.92,14.14S446,250.9,440.62,250.9s-9.92-6.45-9.92-14.27,4.65-14.14,9.92-14.14m29.87-2.61V210.7H449V200.08H432.08V210.7H410.62v9.18h12.43c-5.15,4.22-8.41,10.17-8.41,16.75,0,12.66,11.79,23.08,26,23.08s26-10.42,26-23.08c0-6.58-3.27-12.53-8.54-16.75ZM496.35,200H479.41v59.69h16.94v-29H513.3v-9.55H496.35ZM479.41,302.78h16.94V266.54H421.79V276h57.62Zm-105.32.12V237.5h10v65.4H400.2V200.15H384.13v27.92h-10V200.15H358V259a32.93,32.93,0,0,1-12.68,2.24h-17V209.75h21.09v-9.56H311.7v59.68c0,6.71,4.52,10.92,11.68,10.92h21.34c6.15,0,10.42-1.61,13.31-3.59v35.7Z"/><g class="cls-18"><g class="cls-19"><polygon class="cls-20" points="280.94 125.53 280.95 125.52 280.95 125.53 280.94 125.53"/><polygon class="cls-20" points="280.17 125.53 280.95 125.06 280.95 125.52 280.94 125.53 280.17 125.53"/><polygon class="cls-21" points="279.41 125.53 280.95 124.59 280.95 125.06 280.17 125.53 279.41 125.53"/><polygon class="cls-22" points="278.64 125.53 280.95 124.13 280.95 124.59 279.41 125.53 278.64 125.53"/><polygon class="cls-22" points="277.88 125.53 280.95 123.66 280.95 124.13 278.64 125.53 277.88 125.53"/><polygon class="cls-23" points="277.11 125.53 280.95 123.2 280.95 123.66 277.88 125.53 277.11 125.53"/><polygon class="cls-24" points="276.34 125.53 280.95 122.73 280.95 123.2 277.11 125.53 276.34 125.53"/><polygon class="cls-25" points="275.58 125.53 280.95 122.27 280.95 122.73 276.34 125.53 275.58 125.53"/><polygon class="cls-25" points="274.81 125.53 280.95 121.8 280.95 122.27 275.58 125.53 274.81 125.53"/><polygon class="cls-26" points="274.05 125.53 280.95 121.34 280.95 121.8 274.81 125.53 274.05 125.53"/><polygon class="cls-27" points="273.28 125.53 280.95 120.87 280.95 121.34 274.05 125.53 273.28 125.53"/><polygon class="cls-28" points="272.52 125.53 280.95 120.41 280.95 120.87 273.28 125.53 272.52 125.53"/><polygon class="cls-28" points="271.75 125.53 280.95 119.94 280.95 120.41 272.52 125.53 271.75 125.53"/><polygon class="cls-29" points="270.99 125.53 280.95 119.47 280.95 119.94 271.75 125.53 270.99 125.53"/><polygon class="cls-30" points="270.22 125.53 280.95 119.01 280.95 119.47 270.99 125.53 270.22 125.53"/><polygon class="cls-31" points="269.46 125.53 280.95 118.54 280.95 119.01 270.22 125.53 269.46 125.53"/><polygon class="cls-32" points="268.69 125.53 280.95 118.08 280.95 118.54 269.46 125.53 268.69 125.53"/><polygon class="cls-33" points="267.93 125.53 280.95 117.61 280.95 118.08 268.69 125.53 267.93 125.53"/><polygon class="cls-33" points="267.16 125.53 280.95 117.14 280.95 117.61 267.93 125.53 267.16 125.53"/><polygon class="cls-34" points="266.4 125.53 280.95 116.68 280.95 117.14 267.16 125.53 266.4 125.53"/><polygon class="cls-35" points="265.63 125.53 280.95 116.22 280.95 116.68 266.4 125.53 265.63 125.53"/><polygon class="cls-35" points="264.87 125.53 280.95 115.75 280.95 116.22 265.63 125.53 264.87 125.53"/><polygon class="cls-36" points="264.1 125.53 280.95 115.28 280.95 115.75 264.87 125.53 264.1 125.53"/><polygon class="cls-37" points="263.34 125.53 280.95 114.82 280.95 115.28 264.1 125.53 263.34 125.53"/><polygon class="cls-38" points="262.57 125.53 280.95 114.36 280.95 114.82 263.34 125.53 262.57 125.53"/><polygon class="cls-39" points="261.8 125.53 280.95 113.89 280.95 114.36 262.57 125.53 261.8 125.53"/><polygon class="cls-40" points="261.04 125.53 280.95 113.42 280.95 113.89 261.8 125.53 261.04 125.53"/><polygon class="cls-40" points="260.27 125.53 280.95 112.96 280.95 113.42 261.04 125.53 260.27 125.53"/><polygon class="cls-41" points="259.51 125.53 280.95 112.5 280.95 112.96 260.27 125.53 259.51 125.53"/><polygon class="cls-42" points="258.75 125.53 280.95 112.03 280.95 112.5 259.51 125.53 258.75 125.53"/><polygon class="cls-42" points="257.98 125.53 280.95 111.56 280.95 112.03 258.75 125.53 257.98 125.53"/><polygon class="cls-43" points="257.21 125.53 280.95 111.1 280.95 111.56 257.98 125.53 257.21 125.53"/><polygon class="cls-44" points="256.45 125.53 280.95 110.63 280.95 111.1 257.21 125.53 256.45 125.53"/><polygon class="cls-44" points="255.68 125.53 280.95 110.17 280.95 110.63 256.45 125.53 255.68 125.53"/><polygon class="cls-45" points="254.92 125.53 280.95 109.7 280.95 110.17 255.68 125.53 254.92 125.53"/><polygon class="cls-46" points="254.15 125.53 280.95 109.24 280.95 109.7 254.92 125.53 254.15 125.53"/><polygon class="cls-46" points="253.38 125.53 280.95 108.77 280.95 109.24 254.15 125.53 253.38 125.53"/><polygon class="cls-47" points="252.62 125.53 280.95 108.3 280.95 108.77 253.38 125.53 252.62 125.53"/><polygon class="cls-48" points="251.85 125.53 280.95 107.84 280.95 108.3 252.62 125.53 251.85 125.53"/><polygon class="cls-48" points="251.09 125.53 280.95 107.38 280.95 107.84 251.85 125.53 251.09 125.53"/><polygon class="cls-49" points="250.33 125.53 280.95 106.91 280.95 107.38 251.09 125.53 250.33 125.53"/><polygon class="cls-50" points="249.56 125.53 280.95 106.44 280.95 106.91 250.33 125.53 249.56 125.53"/><polygon class="cls-51" points="248.79 125.53 280.95 105.98 280.95 106.44 249.56 125.53 248.79 125.53"/><polygon class="cls-51" points="248.03 125.53 280.95 105.51 280.95 105.98 248.79 125.53 248.03 125.53"/><polygon class="cls-52" points="247.26 125.53 280.95 105.05 280.95 105.51 248.03 125.53 247.26 125.53"/><polygon class="cls-53" points="246.5 125.53 280.95 104.58 280.95 105.05 247.26 125.53 246.5 125.53"/><polygon class="cls-54" points="245.73 125.53 280.95 104.11 280.95 104.58 246.5 125.53 245.73 125.53"/><polygon class="cls-55" points="244.97 125.53 280.95 103.65 280.95 104.11 245.73 125.53 244.97 125.53"/><polygon class="cls-56" points="244.2 125.53 280.95 103.19 280.95 103.65 244.97 125.53 244.2 125.53"/><polygon class="cls-56" points="243.72 125.36 280.95 102.72 280.95 103.19 244.2 125.53 243.72 125.53 243.72 125.36"/><polygon class="cls-57" points="243.72 124.9 280.95 102.25 280.95 102.72 243.72 125.36 243.72 124.9"/><polygon class="cls-58" points="243.72 124.43 280.95 101.79 280.95 102.25 243.72 124.9 243.72 124.43"/><polygon class="cls-58" points="243.72 123.97 280.95 101.33 280.95 101.79 243.72 124.43 243.72 123.97"/><polygon class="cls-59" points="243.72 123.5 280.95 100.86 280.95 101.33 243.72 123.97 243.72 123.5"/><polygon class="cls-60" points="243.72 123.03 280.95 100.39 280.95 100.86 243.72 123.5 243.72 123.03"/><polygon class="cls-61" points="243.72 122.57 280.95 99.93 280.95 100.39 243.72 123.03 243.72 122.57"/><polygon class="cls-62" points="243.72 122.11 280.95 99.47 280.95 99.93 243.72 122.57 243.72 122.11"/><polygon class="cls-63" points="243.72 121.64 280.95 99 280.95 99.47 243.72 122.11 243.72 121.64"/><polygon class="cls-64" points="243.72 121.17 280.95 98.53 280.95 99 243.72 121.64 243.72 121.17"/><polygon class="cls-64" points="243.72 120.71 280.95 98.07 280.95 98.53 243.72 121.17 243.72 120.71"/><polygon class="cls-65" points="243.72 120.24 280.95 97.6 280.95 98.07 243.72 120.71 243.72 120.24"/><polygon class="cls-66" points="243.72 119.78 280.95 97.14 280.95 97.6 243.72 120.24 243.72 119.78"/><polygon class="cls-67" points="243.72 119.31 280.95 96.67 280.95 97.14 243.72 119.78 243.72 119.31"/><polygon class="cls-68" points="243.72 118.85 280.95 96.21 280.95 96.67 243.72 119.31 243.72 118.85"/><polygon class="cls-69" points="243.72 118.38 280.95 95.74 280.95 96.21 243.72 118.85 243.72 118.38"/><polygon class="cls-69" points="243.72 117.92 280.95 95.27 280.95 95.74 243.72 118.38 243.72 117.92"/><polygon class="cls-70" points="243.72 117.45 280.95 94.81 280.95 95.27 243.72 117.92 243.72 117.45"/><polygon class="cls-71" points="243.72 116.99 280.95 94.35 280.95 94.81 243.72 117.45 243.72 116.99"/><polygon class="cls-71" points="243.72 116.52 280.95 93.88 280.95 94.35 243.72 116.99 243.72 116.52"/><polygon class="cls-72" points="243.72 116.06 280.95 93.41 280.95 93.88 243.72 116.52 243.72 116.06"/><polygon class="cls-73" points="243.72 115.59 280.95 92.95 280.95 93.41 243.72 116.06 243.72 115.59"/><polygon class="cls-74" points="243.72 115.13 280.95 92.48 280.95 92.95 243.72 115.59 243.72 115.13"/><polygon class="cls-75" points="243.72 114.66 280.95 92.02 280.95 92.48 243.72 115.13 243.72 114.66"/><polygon class="cls-76" points="243.72 114.19 280.95 91.55 280.95 92.02 243.72 114.66 243.72 114.19"/><polygon class="cls-77" points="243.72 113.73 280.95 91.08 280.95 91.55 243.72 114.19 243.72 113.73"/><polygon class="cls-78" points="243.72 113.27 280.21 91.08 280.95 91.08 280.95 91.08 243.72 113.73 243.72 113.27"/><polygon class="cls-79" points="243.72 112.8 279.45 91.08 280.21 91.08 243.72 113.27 243.72 112.8"/><polygon class="cls-79" points="243.72 112.33 278.68 91.08 279.45 91.08 243.72 112.8 243.72 112.33"/><polygon class="cls-80" points="243.72 111.87 277.92 91.08 278.68 91.08 243.72 112.33 243.72 111.87"/><polygon class="cls-81" points="243.72 111.4 277.15 91.08 277.92 91.08 243.72 111.87 243.72 111.4"/><polygon class="cls-81" points="243.72 110.94 276.38 91.08 277.15 91.08 243.72 111.4 243.72 110.94"/><polygon class="cls-82" points="243.72 110.47 275.62 91.08 276.38 91.08 243.72 110.94 243.72 110.47"/><polygon class="cls-83" points="243.72 110 274.86 91.08 275.62 91.08 243.72 110.47 243.72 110"/><polygon class="cls-84" points="243.72 109.54 274.09 91.08 274.86 91.08 243.72 110 243.72 109.54"/><polygon class="cls-85" points="243.72 109.07 273.33 91.08 274.09 91.08 243.72 109.54 243.72 109.07"/><polygon class="cls-86" points="243.72 108.61 272.56 91.08 273.33 91.08 243.72 109.07 243.72 108.61"/><polygon class="cls-87" points="243.72 108.14 271.79 91.08 272.56 91.08 243.72 108.61 243.72 108.14"/><polygon class="cls-88" points="243.72 107.68 271.03 91.08 271.79 91.08 243.72 108.14 243.72 107.68"/><polygon class="cls-89" points="243.72 107.21 270.26 91.08 271.03 91.08 243.72 107.68 243.72 107.21"/><polygon class="cls-89" points="243.72 106.75 269.5 91.08 270.26 91.08 243.72 107.21 243.72 106.75"/><polygon class="cls-90" points="243.72 106.28 268.74 91.08 269.5 91.08 243.72 106.75 243.72 106.28"/><polygon class="cls-91" points="243.72 105.82 267.97 91.08 268.74 91.08 243.72 106.28 243.72 105.82"/><polygon class="cls-91" points="243.72 105.35 267.2 91.08 267.97 91.08 243.72 105.82 243.72 105.35"/><polygon class="cls-92" points="243.72 104.89 266.44 91.08 267.2 91.08 243.72 105.35 243.72 104.89"/><polygon class="cls-93" points="243.72 104.42 265.67 91.08 266.44 91.08 243.72 104.89 243.72 104.42"/><polygon class="cls-93" points="243.72 103.96 264.91 91.08 265.67 91.08 243.72 104.42 243.72 103.96"/><polygon class="cls-94" points="243.72 103.49 264.14 91.08 264.91 91.08 243.72 103.96 243.72 103.49"/><polygon class="cls-95" points="243.72 103.03 263.38 91.08 264.14 91.08 243.72 103.49 243.72 103.03"/><polygon class="cls-95" points="243.72 102.56 262.61 91.08 263.38 91.08 243.72 103.03 243.72 102.56"/><polygon class="cls-96" points="243.72 102.1 261.85 91.08 262.61 91.08 243.72 102.56 243.72 102.1"/><polygon class="cls-97" points="243.72 101.63 261.08 91.08 261.85 91.08 243.72 102.1 243.72 101.63"/><polygon class="cls-97" points="243.72 101.16 260.31 91.08 261.08 91.08 243.72 101.63 243.72 101.16"/><polygon class="cls-98" points="243.72 100.7 259.55 91.08 260.31 91.08 243.72 101.16 243.72 100.7"/><polygon class="cls-99" points="243.72 100.24 258.79 91.08 259.55 91.08 243.72 100.7 243.72 100.24"/><polygon class="cls-100" points="243.72 99.77 258.02 91.08 258.79 91.08 243.72 100.24 243.72 99.77"/><polygon class="cls-101" points="243.72 99.3 257.25 91.08 258.02 91.08 243.72 99.77 243.72 99.3"/><polygon class="cls-102" points="243.72 98.83 256.49 91.08 257.25 91.08 243.72 99.3 243.72 98.83"/><polygon class="cls-103" points="243.72 98.37 255.72 91.08 256.49 91.08 243.72 98.83 243.72 98.37"/><polygon class="cls-104" points="243.72 97.91 254.96 91.08 255.72 91.08 243.72 98.37 243.72 97.91"/><polygon class="cls-104" points="243.72 97.44 254.19 91.08 254.96 91.08 243.72 97.91 243.72 97.44"/><polygon class="cls-105" points="243.72 96.97 253.43 91.08 254.19 91.08 243.72 97.44 243.72 96.97"/><polygon class="cls-106" points="243.72 96.51 252.66 91.08 253.43 91.08 243.72 96.97 243.72 96.51"/><polygon class="cls-107" points="243.72 96.04 251.9 91.08 252.66 91.08 243.72 96.51 243.72 96.04"/><polygon class="cls-107" points="243.72 95.58 251.13 91.08 251.9 91.08 243.72 96.04 243.72 95.58"/><polygon class="cls-108" points="243.72 95.11 250.37 91.08 251.13 91.08 243.72 95.58 243.72 95.11"/><polygon class="cls-108" points="243.72 94.65 249.6 91.08 250.37 91.08 243.72 95.11 243.72 94.65"/><polygon class="cls-109" points="243.72 94.18 248.84 91.08 249.6 91.08 243.72 94.65 243.72 94.18"/><polygon class="cls-110" points="243.72 93.72 248.07 91.08 248.84 91.08 243.72 94.18 243.72 93.72"/><polygon class="cls-110" points="243.72 93.25 247.31 91.08 248.07 91.08 243.72 93.72 243.72 93.25"/><polygon class="cls-111" points="243.72 92.79 246.54 91.08 247.31 91.08 243.72 93.25 243.72 92.79"/><polygon class="cls-112" points="243.72 92.32 245.78 91.08 246.54 91.08 243.72 92.79 243.72 92.32"/><polygon class="cls-112" points="243.72 91.86 245.01 91.08 245.78 91.08 243.72 92.32 243.72 91.86"/><polygon class="cls-113" points="243.72 91.39 244.25 91.08 245.01 91.08 243.72 91.86 243.72 91.39"/><polygon class="cls-114" points="244.25 91.08 243.72 91.39 243.72 91.08 244.25 91.08"/></g></g><g class="cls-115"><path class="cls-116" d="M257.15,111.36a14.25,14.25,0,0,1,6.71-12.18s-16.78,2.61-19.15,18.87a13.68,13.68,0,0,0,12.12,7.48,13.33,13.33,0,0,0,7-2,14.25,14.25,0,0,1-6.71-12.18"/></g><g class="cls-117"><path class="cls-116" d="M257.15,111.36a14.25,14.25,0,0,1,6.71-12.18c-11.19,2.28-13.21,21.91-4.22,26.06a13.41,13.41,0,0,0,4.22-1.7,14.25,14.25,0,0,1-6.71-12.18"/></g><g class="cls-118"><path class="cls-116" d="M243.79,113.32a21.08,21.08,0,0,0,.92,4.73,13.68,13.68,0,0,0,12.12,7.48,13.33,13.33,0,0,0,7-2s-13.52,2-20.07-10.22"/></g><g class="cls-119"><path class="cls-120" d="M277.32,98.82a13.9,13.9,0,0,1,3.63,2.89A19.5,19.5,0,0,0,247.22,100C263.44,89.65,277.32,98.82,277.32,98.82Z"/></g><g class="cls-121"><path class="cls-116" d="M263.86,99.18A13.4,13.4,0,0,1,281,101.71,20.37,20.37,0,0,0,273.84,94c-7.25.83-10,5.15-10,5.15"/></g><g class="cls-122"><g class="cls-123"><polygon class="cls-124" points="282.56 132.17 283.41 131.36 283.41 132.17 282.56 132.17"/><polygon class="cls-125" points="279.84 132.17 283.41 128.79 283.41 131.36 282.56 132.17 279.84 132.17"/><polygon class="cls-126" points="277.13 132.17 283.41 126.23 283.41 128.79 279.84 132.17 277.13 132.17"/><polygon class="cls-127" points="274.41 132.17 283.41 123.66 283.41 126.23 277.13 132.17 274.41 132.17"/><polygon class="cls-128" points="271.69 132.17 283.41 121.08 283.41 123.66 274.41 132.17 271.69 132.17"/><polygon class="cls-128" points="271.02 132.17 283.41 120.45 283.41 121.08 271.69 132.17 271.02 132.17"/><polygon class="cls-129" points="270.34 132.17 283.41 119.81 283.41 120.45 271.02 132.17 270.34 132.17"/><polygon class="cls-130" points="269.67 132.17 283.41 119.16 283.41 119.81 270.34 132.17 269.67 132.17"/><polygon class="cls-130" points="268.99 132.17 283.41 118.53 283.41 119.16 269.67 132.17 268.99 132.17"/><polygon class="cls-131" points="268.31 132.17 283.41 117.89 283.41 118.53 268.99 132.17 268.31 132.17"/><polygon class="cls-132" points="267.64 132.17 283.41 117.24 283.41 117.89 268.31 132.17 267.64 132.17"/><polygon class="cls-133" points="266.96 132.17 283.41 116.61 283.41 117.24 267.64 132.17 266.96 132.17"/><polygon class="cls-133" points="266.29 132.17 283.41 115.97 283.41 116.61 266.96 132.17 266.29 132.17"/><polygon class="cls-134" points="265.61 132.17 283.41 115.33 283.41 115.97 266.29 132.17 265.61 132.17"/><polygon class="cls-135" points="264.93 132.17 283.41 114.69 283.41 115.33 265.61 132.17 264.93 132.17"/><polygon class="cls-136" points="264.25 132.17 283.41 114.05 283.41 114.69 264.93 132.17 264.25 132.17"/><polygon class="cls-137" points="263.58 132.17 283.41 113.41 283.41 114.05 264.25 132.17 263.58 132.17"/><polygon class="cls-137" points="262.9 132.17 283.41 112.77 283.41 113.41 263.58 132.17 262.9 132.17"/><polygon class="cls-138" points="262.22 132.17 283.41 112.13 283.41 112.77 262.9 132.17 262.22 132.17"/><polygon class="cls-139" points="261.55 132.17 283.41 111.48 283.41 112.13 262.22 132.17 261.55 132.17"/><polygon class="cls-140" points="260.87 132.17 283.41 110.85 283.41 111.48 261.55 132.17 260.87 132.17"/><polygon class="cls-141" points="260.19 132.17 283.41 110.2 283.41 110.85 260.87 132.17 260.19 132.17"/><polygon class="cls-142" points="259.52 132.17 283.41 109.57 283.41 110.2 260.19 132.17 259.52 132.17"/><polygon class="cls-143" points="258.84 132.17 283.41 108.92 283.41 109.57 259.52 132.17 258.84 132.17"/><polygon class="cls-144" points="258.16 132.17 283.41 108.28 283.41 108.92 258.84 132.17 258.16 132.17"/><polygon class="cls-144" points="257.49 132.17 283.41 107.65 283.41 108.28 258.16 132.17 257.49 132.17"/><polygon class="cls-145" points="256.81 132.17 283.41 107 283.41 107.65 257.49 132.17 256.81 132.17"/><polygon class="cls-146" points="256.14 132.17 283.41 106.36 283.41 107 256.81 132.17 256.14 132.17"/><polygon class="cls-147" points="255.46 132.17 283.41 105.73 283.41 106.36 256.14 132.17 255.46 132.17"/><polygon class="cls-147" points="254.78 132.17 283.41 105.08 283.41 105.73 255.46 132.17 254.78 132.17"/><polygon class="cls-148" points="254.11 132.17 283.41 104.44 283.41 105.08 254.78 132.17 254.11 132.17"/><polygon class="cls-149" points="253.43 132.17 283.41 103.81 283.41 104.44 254.11 132.17 253.43 132.17"/><polygon class="cls-150" points="252.75 132.17 283.41 103.17 283.41 103.81 253.43 132.17 252.75 132.17"/><polygon class="cls-151" points="252.08 132.17 283.41 102.52 283.41 103.17 252.75 132.17 252.08 132.17"/><polygon class="cls-152" points="251.4 132.17 283.41 101.89 283.41 102.52 252.08 132.17 251.4 132.17"/><polygon class="cls-153" points="250.72 132.17 283.41 101.24 283.41 101.89 251.4 132.17 250.72 132.17"/><polygon class="cls-154" points="250.05 132.17 283.41 100.6 283.41 101.24 250.72 132.17 250.05 132.17"/><polygon class="cls-154" points="249.37 132.17 283.41 99.96 283.41 100.6 250.05 132.17 249.37 132.17"/><polygon class="cls-155" points="248.69 132.17 283.41 99.32 283.41 99.96 249.37 132.17 248.69 132.17"/><polygon class="cls-156" points="248.02 132.17 283.41 98.68 283.41 99.32 248.69 132.17 248.02 132.17"/><polygon class="cls-156" points="247.34 132.17 283.41 98.04 283.41 98.68 248.02 132.17 247.34 132.17"/><polygon class="cls-157" points="246.66 132.17 283.41 97.4 283.41 98.04 247.34 132.17 246.66 132.17"/><polygon class="cls-158" points="245.99 132.17 282.97 97.18 283.41 97.18 283.41 97.4 246.66 132.17 245.99 132.17"/><polygon class="cls-159" points="245.31 132.17 282.29 97.18 282.97 97.18 245.99 132.17 245.31 132.17"/><polygon class="cls-159" points="244.71 132.1 281.62 97.18 282.29 97.18 245.31 132.17 244.71 132.17 244.71 132.1"/><polygon class="cls-160" points="244.71 131.46 280.94 97.18 281.62 97.18 244.71 132.1 244.71 131.46"/><polygon class="cls-161" points="244.71 130.82 280.26 97.18 280.94 97.18 244.71 131.46 244.71 130.82"/><polygon class="cls-161" points="244.71 130.18 279.59 97.18 280.26 97.18 244.71 130.82 244.71 130.18"/><polygon class="cls-162" points="244.71 129.54 278.91 97.18 279.59 97.18 244.71 130.18 244.71 129.54"/><polygon class="cls-163" points="244.71 128.9 278.23 97.18 278.91 97.18 244.71 129.54 244.71 128.9"/><polygon class="cls-164" points="244.71 128.26 277.56 97.18 278.23 97.18 244.71 128.9 244.71 128.26"/><polygon class="cls-164" points="244.71 127.62 276.88 97.18 277.56 97.18 244.71 128.26 244.71 127.62"/><polygon class="cls-165" points="244.71 126.98 276.2 97.18 276.88 97.18 244.71 127.62 244.71 126.98"/><polygon class="cls-166" points="244.71 126.34 275.53 97.18 276.2 97.18 244.71 126.98 244.71 126.34"/><polygon class="cls-166" points="244.71 125.7 274.85 97.18 275.53 97.18 244.71 126.34 244.71 125.7"/><polygon class="cls-167" points="244.71 125.06 274.17 97.18 274.85 97.18 244.71 125.7 244.71 125.06"/><polygon class="cls-168" points="244.71 124.42 273.5 97.18 274.17 97.18 244.71 125.06 244.71 124.42"/><polygon class="cls-169" points="244.71 123.78 272.82 97.18 273.5 97.18 244.71 124.42 244.71 123.78"/><polygon class="cls-170" points="244.71 123.14 272.14 97.18 272.82 97.18 244.71 123.78 244.71 123.14"/><polygon class="cls-171" points="244.71 122.5 271.47 97.18 272.14 97.18 244.71 123.14 244.71 122.5"/><polygon class="cls-172" points="244.71 121.86 270.79 97.18 271.47 97.18 244.71 122.5 244.71 121.86"/><polygon class="cls-173" points="244.71 121.22 270.12 97.18 270.79 97.18 244.71 121.86 244.71 121.22"/><polygon class="cls-174" points="244.71 120.58 269.44 97.18 270.12 97.18 244.71 121.22 244.71 120.58"/><polygon class="cls-175" points="244.71 119.94 268.76 97.18 269.44 97.18 244.71 120.58 244.71 119.94"/><polygon class="cls-176" points="244.71 119.3 268.09 97.18 268.76 97.18 244.71 119.94 244.71 119.3"/><polygon class="cls-177" points="244.71 118.66 267.41 97.18 268.09 97.18 244.71 119.3 244.71 118.66"/><polygon class="cls-178" points="244.71 118.02 266.73 97.18 267.41 97.18 244.71 118.66 244.71 118.02"/><polygon class="cls-178" points="244.71 117.38 266.05 97.18 266.73 97.18 244.71 118.02 244.71 117.38"/><polygon class="cls-178" points="244.71 116.74 265.38 97.18 266.05 97.18 244.71 117.38 244.71 116.74"/><polygon class="cls-179" points="244.71 116.1 264.7 97.18 265.38 97.18 244.71 116.74 244.71 116.1"/><polygon class="cls-180" points="244.71 115.46 264.03 97.18 264.7 97.18 244.71 116.1 244.71 115.46"/><polygon class="cls-180" points="244.71 114.82 263.35 97.18 264.03 97.18 244.71 115.46 244.71 114.82"/><polygon class="cls-181" points="244.71 114.18 262.67 97.18 263.35 97.18 244.71 114.82 244.71 114.18"/><polygon class="cls-182" points="244.71 113.54 262 97.18 262.67 97.18 244.71 114.18 244.71 113.54"/><polygon class="cls-182" points="244.71 112.9 261.32 97.18 262 97.18 244.71 113.54 244.71 112.9"/><polygon class="cls-183" points="244.71 112.26 260.64 97.18 261.32 97.18 244.71 112.9 244.71 112.26"/><polygon class="cls-184" points="244.71 111.62 259.97 97.18 260.64 97.18 244.71 112.26 244.71 111.62"/><polygon class="cls-184" points="244.71 110.98 259.29 97.18 259.97 97.18 244.71 111.62 244.71 110.98"/><polygon class="cls-185" points="244.71 110.34 258.62 97.18 259.29 97.18 244.71 110.98 244.71 110.34"/><polygon class="cls-186" points="244.71 109.7 257.94 97.18 258.62 97.18 244.71 110.34 244.71 109.7"/><polygon class="cls-187" points="244.71 109.06 257.26 97.18 257.94 97.18 244.71 109.7 244.71 109.06"/><polygon class="cls-188" points="244.71 108.42 256.58 97.18 257.26 97.18 244.71 109.06 244.71 108.42"/><polygon class="cls-189" points="244.71 107.78 255.91 97.18 256.58 97.18 244.71 108.42 244.71 107.78"/><polygon class="cls-190" points="244.71 107.14 255.23 97.18 255.91 97.18 244.71 107.78 244.71 107.14"/><polygon class="cls-191" points="244.71 106.5 254.56 97.18 255.23 97.18 244.71 107.14 244.71 106.5"/><polygon class="cls-192" points="244.71 105.86 253.88 97.18 254.56 97.18 244.71 106.5 244.71 105.86"/><polygon class="cls-193" points="244.71 105.22 253.2 97.18 253.88 97.18 244.71 105.86 244.71 105.22"/><polygon class="cls-194" points="244.71 104.58 252.53 97.18 253.2 97.18 244.71 105.22 244.71 104.58"/><polygon class="cls-195" points="244.71 103.94 251.85 97.18 252.53 97.18 244.71 104.58 244.71 103.94"/><polygon class="cls-196" points="244.71 103.3 251.17 97.18 251.85 97.18 244.71 103.94 244.71 103.3"/><polygon class="cls-196" points="244.71 102.66 250.5 97.18 251.17 97.18 244.71 103.3 244.71 102.66"/><polygon class="cls-197" points="244.71 102.02 249.82 97.18 250.5 97.18 244.71 102.66 244.71 102.02"/><polygon class="cls-198" points="244.71 101.38 249.14 97.18 249.82 97.18 244.71 102.02 244.71 101.38"/><polygon class="cls-198" points="244.71 100.74 248.47 97.18 249.14 97.18 244.71 101.38 244.71 100.74"/><polygon class="cls-199" points="244.71 100.1 247.79 97.18 248.47 97.18 244.71 100.74 244.71 100.1"/><polygon class="cls-200" points="244.71 99.46 247.11 97.18 247.79 97.18 244.71 100.1 244.71 99.46"/><polygon class="cls-200" points="244.71 98.81 246.44 97.18 247.11 97.18 244.71 99.46 244.71 98.81"/><polygon class="cls-201" points="244.71 98.18 245.76 97.18 246.44 97.18 244.71 98.81 244.71 98.18"/><polygon class="cls-202" points="244.71 97.54 245.08 97.18 245.76 97.18 244.71 98.18 244.71 97.54"/><polygon class="cls-203" points="245.08 97.18 244.71 97.54 244.71 97.18 245.08 97.18"/></g></g><g class="cls-204"><path class="cls-205" d="M283,116.06a21.33,21.33,0,0,0-2-14.35,13.4,13.4,0,0,0-17.09-2.53c17.7-1,19.09,16.86,19.09,16.88"/></g><g class="cls-206"><path class="cls-205" d="M263.86,99.18a14.11,14.11,0,0,1,4.92,5.17h0c4.52-3.86,12.17-2.64,12.17-2.64a13.4,13.4,0,0,0-17.09-2.53"/></g><g class="cls-207"><path class="cls-205" d="M263.86,99.18a14.41,14.41,0,0,1,0,24.36c14-4.6,15.18-24.79,0-24.36"/></g><g class="cls-208"><path class="cls-209" d="M263.86,99.18a14.41,14.41,0,0,1,0,24.36,13.33,13.33,0,0,1-7,2,13.68,13.68,0,0,1-12.12-7.48,19.93,19.93,0,0,0,18.86,14.12,19.17,19.17,0,0,0,9.24-2.36c8.48-23-8.95-30.63-8.95-30.63"/></g><g class="cls-210"><path class="cls-209" d="M263.86,123.54a13.33,13.33,0,0,1-7,2,13.68,13.68,0,0,1-12.12-7.48,19.93,19.93,0,0,0,18.86,14.12,19.62,19.62,0,0,0,15.8-8.1c-7.06,1.78-15.51-.53-15.51-.53"/></g><g class="cls-211"><path class="cls-209" d="M244.71,118.05a19.62,19.62,0,0,0,36.86,2.23,20.72,20.72,0,0,0,1.65-5.77c-3.26,10.79-29.85,22.39-38.51,3.54"/></g><g class="cls-212"><path class="cls-120" d="M250.08,120.62a16.85,16.85,0,0,1-1.84-7.94,22.68,22.68,0,0,1,1.61-8.44A21.55,21.55,0,0,1,265,91.13c-.48,0-.95,0-1.43,0a19.85,19.85,0,0,0-18.34,12.68,21.28,21.28,0,0,0-.52,14.29,13.78,13.78,0,0,0,9.52,7.23,12.87,12.87,0,0,1-4.15-4.66"/></g><g class="cls-213"><rect class="cls-214" x="140.4" y="241.3" width="0.73" height="60.41"/><rect class="cls-215" x="141.12" y="241.3" width="0.73" height="60.41"/><rect class="cls-216" x="141.85" y="241.3" width="0.73" height="60.41"/><rect class="cls-217" x="142.58" y="241.3" width="0.73" height="60.41"/><rect class="cls-218" x="143.3" y="241.3" width="0.73" height="60.41"/><rect class="cls-219" x="144.03" y="241.3" width="0.73" height="60.41"/><rect class="cls-220" x="144.76" y="241.3" width="0.73" height="60.41"/><rect class="cls-221" x="145.49" y="241.3" width="0.73" height="60.41"/><rect class="cls-222" x="146.21" y="241.3" width="0.73" height="60.41"/><rect class="cls-223" x="146.94" y="241.3" width="0.73" height="60.41"/><rect class="cls-224" x="147.66" y="241.3" width="0.73" height="60.41"/><rect class="cls-225" x="148.39" y="241.3" width="0.73" height="60.41"/><rect class="cls-226" x="149.12" y="241.3" width="0.73" height="60.41"/><rect class="cls-227" x="149.84" y="241.3" width="0.73" height="60.41"/><rect class="cls-228" x="150.57" y="241.3" width="0.73" height="60.41"/><rect class="cls-229" x="151.3" y="241.3" width="0.73" height="60.41"/><rect class="cls-230" x="152.02" y="241.3" width="0.73" height="60.41"/><rect class="cls-231" x="152.75" y="241.3" width="0.73" height="60.41"/><rect class="cls-232" x="153.48" y="241.3" width="0.73" height="60.41"/><rect class="cls-233" x="154.2" y="241.3" width="0.72" height="60.41"/><rect class="cls-234" x="154.93" y="241.3" width="0.73" height="60.41"/><rect class="cls-235" x="155.66" y="241.3" width="0.73" height="60.41"/><rect class="cls-236" x="156.38" y="241.3" width="0.73" height="60.41"/><rect class="cls-237" x="157.11" y="241.3" width="0.73" height="60.41"/><rect class="cls-238" x="157.84" y="241.3" width="0.73" height="60.41"/><rect class="cls-239" x="158.57" y="241.3" width="0.73" height="60.41"/><rect class="cls-240" x="159.29" y="241.3" width="0.73" height="60.41"/><rect class="cls-241" x="160.02" y="241.3" width="0.73" height="60.41"/><rect class="cls-242" x="160.74" y="241.3" width="0.73" height="60.41"/><rect class="cls-243" x="161.47" y="241.3" width="0.73" height="60.41"/><rect class="cls-244" x="162.2" y="241.3" width="0.73" height="60.41"/><rect class="cls-245" x="162.92" y="241.3" width="0.73" height="60.41"/><rect class="cls-246" x="163.65" y="241.3" width="0.72" height="60.41"/><rect class="cls-247" x="164.38" y="241.3" width="0.73" height="60.41"/><rect class="cls-248" x="165.1" y="241.3" width="0.73" height="60.41"/><rect class="cls-249" x="165.83" y="241.3" width="0.73" height="60.41"/><rect class="cls-250" x="166.56" y="241.3" width="0.73" height="60.41"/><rect class="cls-251" x="167.28" y="241.3" width="0.73" height="60.41"/><rect class="cls-252" x="168.01" y="241.3" width="0.73" height="60.41"/><rect class="cls-253" x="168.74" y="241.3" width="0.73" height="60.41"/><rect class="cls-254" x="169.47" y="241.3" width="0.73" height="60.41"/><rect class="cls-255" x="170.19" y="241.3" width="0.73" height="60.41"/><rect class="cls-256" x="170.92" y="241.3" width="0.73" height="60.41"/><rect class="cls-257" x="171.64" y="241.3" width="0.73" height="60.41"/><rect class="cls-258" x="172.37" y="241.3" width="0.73" height="60.41"/><rect class="cls-259" x="173.1" y="241.3" width="0.72" height="60.41"/><rect class="cls-260" x="173.82" y="241.3" width="0.73" height="60.41"/><rect class="cls-261" x="174.55" y="241.3" width="0.73" height="60.41"/><rect class="cls-262" x="175.28" y="241.3" width="0.73" height="60.41"/><rect class="cls-263" x="176" y="241.3" width="0.73" height="60.41"/><rect class="cls-264" x="176.73" y="241.3" width="0.73" height="60.41"/><rect class="cls-265" x="177.46" y="241.3" width="0.73" height="60.41"/><rect class="cls-266" x="178.18" y="241.3" width="0.73" height="60.41"/><rect class="cls-267" x="178.91" y="241.3" width="0.73" height="60.41"/><rect class="cls-268" x="179.64" y="241.3" width="0.73" height="60.41"/><rect class="cls-269" x="180.36" y="241.3" width="0.73" height="60.41"/><rect class="cls-270" x="181.09" y="241.3" width="0.72" height="60.41"/><rect class="cls-271" x="181.82" y="241.3" width="0.73" height="60.41"/><rect class="cls-272" x="182.55" y="241.3" width="0.72" height="60.41"/><rect class="cls-273" x="183.27" y="241.3" width="0.73" height="60.41"/><rect class="cls-274" x="184" y="241.3" width="0.73" height="60.41"/><rect class="cls-275" x="184.73" y="241.3" width="0.73" height="60.41"/><rect class="cls-276" x="185.45" y="241.3" width="0.73" height="60.41"/><rect class="cls-277" x="186.18" y="241.3" width="0.73" height="60.41"/><rect class="cls-278" x="186.91" y="241.3" width="0.73" height="60.41"/><rect class="cls-279" x="187.63" y="241.3" width="0.73" height="60.41"/><rect class="cls-280" x="188.36" y="241.3" width="0.73" height="60.41"/><rect class="cls-281" x="189.08" y="241.3" width="0.73" height="60.41"/><rect class="cls-282" x="189.81" y="241.3" width="0.73" height="60.41"/><rect class="cls-283" x="190.54" y="241.3" width="0.73" height="60.41"/><rect class="cls-284" x="191.27" y="241.3" width="0.73" height="60.41"/><rect class="cls-285" x="191.99" y="241.3" width="0.73" height="60.41"/><rect class="cls-286" x="192.72" y="241.3" width="0.73" height="60.41"/><rect class="cls-287" x="193.45" y="241.3" width="0.73" height="60.41"/><rect class="cls-288" x="194.17" y="241.3" width="0.73" height="60.41"/><rect class="cls-289" x="194.9" y="241.3" width="0.73" height="60.41"/><rect class="cls-290" x="195.63" y="241.3" width="0.73" height="60.41"/><rect class="cls-291" x="196.35" y="241.3" width="0.73" height="60.41"/><rect class="cls-292" x="197.08" y="241.3" width="0.73" height="60.41"/><rect class="cls-293" x="197.81" y="241.3" width="0.73" height="60.41"/><rect class="cls-294" x="198.53" y="241.3" width="0.73" height="60.41"/><rect class="cls-295" x="199.26" y="241.3" width="0.73" height="60.41"/><rect class="cls-296" x="199.99" y="241.3" width="0.72" height="60.41"/><rect class="cls-297" x="200.71" y="241.3" width="0.73" height="60.41"/><rect class="cls-298" x="201.44" y="241.3" width="0.73" height="60.41"/><rect class="cls-299" x="202.17" y="241.3" width="0.73" height="60.41"/><rect class="cls-300" x="202.89" y="241.3" width="0.73" height="60.41"/><rect class="cls-301" x="203.62" y="241.3" width="0.73" height="60.41"/><rect class="cls-302" x="204.34" y="241.3" width="0.73" height="60.41"/><rect class="cls-303" x="205.07" y="241.3" width="0.73" height="60.41"/><rect class="cls-304" x="205.8" y="241.3" width="0.72" height="60.41"/><rect class="cls-305" x="206.52" y="241.3" width="0.73" height="60.41"/><rect class="cls-306" x="207.25" y="241.3" width="0.73" height="60.41"/><rect class="cls-307" x="207.98" y="241.3" width="0.73" height="60.41"/><rect class="cls-308" x="208.71" y="241.3" width="0.73" height="60.41"/><rect class="cls-309" x="209.43" y="241.3" width="0.73" height="60.41"/><rect class="cls-310" x="210.16" y="241.3" width="0.73" height="60.41"/><rect class="cls-311" x="210.89" y="241.3" width="0.73" height="60.41"/><rect class="cls-312" x="211.61" y="241.3" width="0.73" height="60.41"/><rect class="cls-313" x="212.34" y="241.3" width="0.73" height="60.41"/><rect class="cls-314" x="213.07" y="241.3" width="0.73" height="60.41"/><rect class="cls-315" x="213.79" y="241.3" width="0.73" height="60.41"/><rect class="cls-316" x="214.52" y="241.3" width="0.73" height="60.41"/><rect class="cls-317" x="215.25" y="241.3" width="0.72" height="60.41"/><rect class="cls-318" x="215.97" y="241.3" width="0.73" height="60.41"/><rect class="cls-319" x="216.7" y="241.3" width="0.73" height="60.41"/><rect class="cls-320" x="217.43" y="241.3" width="0.73" height="60.41"/><rect class="cls-321" x="218.15" y="241.3" width="0.73" height="60.41"/><rect class="cls-322" x="218.88" y="241.3" width="0.73" height="60.41"/><rect class="cls-323" x="219.61" y="241.3" width="0.73" height="60.41"/><rect class="cls-324" x="220.33" y="241.3" width="0.73" height="60.41"/><rect class="cls-325" x="221.06" y="241.3" width="0.73" height="60.41"/><rect class="cls-326" x="221.79" y="241.3" width="0.73" height="60.41"/><rect class="cls-327" x="222.51" y="241.3" width="0.73" height="60.41"/><rect class="cls-328" x="223.24" y="241.3" width="0.73" height="60.41"/><rect class="cls-329" x="223.97" y="241.3" width="0.73" height="60.41"/><rect class="cls-330" x="224.69" y="241.3" width="0.72" height="60.41"/><rect class="cls-331" x="225.42" y="241.3" width="0.73" height="60.41"/><rect class="cls-332" x="226.15" y="241.3" width="0.73" height="60.41"/><rect class="cls-333" x="226.87" y="241.3" width="0.73" height="60.41"/><rect class="cls-334" x="227.6" y="241.3" width="0.73" height="60.41"/><rect class="cls-335" x="228.33" y="241.3" width="0.73" height="60.41"/><rect class="cls-336" x="229.05" y="241.3" width="0.73" height="60.41"/><rect class="cls-337" x="229.78" y="241.3" width="0.73" height="60.41"/><rect class="cls-338" x="230.51" y="241.3" width="0.73" height="60.41"/><rect class="cls-339" x="231.24" y="241.3" width="0.72" height="60.41"/><rect class="cls-340" x="231.96" y="241.3" width="0.73" height="60.41"/><rect class="cls-341" x="232.69" y="241.3" width="0.73" height="60.41"/><rect class="cls-342" x="233.41" y="241.3" width="0.73" height="60.41"/><rect class="cls-343" x="234.14" y="241.3" width="0.72" height="60.41"/><rect class="cls-342" x="234.87" y="241.3" width="0.73" height="60.41"/><rect class="cls-344" x="235.59" y="241.3" width="0.73" height="60.41"/><rect class="cls-345" x="236.32" y="241.3" width="0.73" height="60.41"/><rect class="cls-345" x="237.05" y="241.3" width="0.73" height="60.41"/><rect class="cls-346" x="237.77" y="241.3" width="0.73" height="60.41"/></g><g class="cls-347"><path class="cls-348" d="M238,253.52l0-.08a45.19,45.19,0,0,1-10.25,14.18c-8.7,8-20.34,12.11-34,12.11a73.29,73.29,0,0,1-9.21-.59c-24.67-3.05-37.7-23-44-37.45C147.06,260.76,160,286,184,290a56.79,56.79,0,0,0,9.21.78,42.38,42.38,0,0,0,34-16.18c4.55-5.59,8.22-13.26,10.8-21.06Z"/></g><g class="cls-349"><polygon class="cls-350" points="280.79 305.18 281.36 304.59 281.36 305.18 280.79 305.18"/><polygon class="cls-351" points="278.19 305.18 281.36 301.89 281.36 304.59 280.79 305.18 278.19 305.18"/><polygon class="cls-352" points="275.6 305.18 281.36 299.19 281.36 301.89 278.19 305.18 275.6 305.18"/><polygon class="cls-353" points="273 305.18 281.36 296.49 281.36 299.19 275.6 305.18 273 305.18"/><polygon class="cls-354" points="270.4 305.18 281.36 293.79 281.36 296.49 273 305.18 270.4 305.18"/><polygon class="cls-355" points="267.8 305.18 281.36 291.08 281.36 293.79 270.4 305.18 267.8 305.18"/><polygon class="cls-356" points="265.2 305.18 281.36 288.38 281.36 291.08 267.8 305.18 265.2 305.18"/><polygon class="cls-357" points="262.6 305.18 281.36 285.68 281.36 288.38 265.2 305.18 262.6 305.18"/><polygon class="cls-358" points="260.01 305.18 281.36 282.98 281.36 285.68 262.6 305.18 260.01 305.18"/><polygon class="cls-358" points="257.41 305.18 281.36 280.27 281.36 282.98 260.01 305.18 257.41 305.18"/><polygon class="cls-359" points="254.81 305.18 281.36 277.57 281.36 280.27 257.41 305.18 254.81 305.18"/><polygon class="cls-360" points="252.21 305.18 281.36 274.87 281.36 277.57 254.81 305.18 252.21 305.18"/><polygon class="cls-361" points="249.61 305.18 281.36 272.17 281.36 274.87 252.21 305.18 249.61 305.18"/><polygon class="cls-362" points="247.01 305.18 281.36 269.47 281.36 272.17 249.61 305.18 247.01 305.18"/><polygon class="cls-363" points="244.41 305.18 281.36 266.77 281.36 269.47 247.01 305.18 244.41 305.18"/><polygon class="cls-364" points="241.82 305.18 281.36 264.06 281.36 266.77 244.41 305.18 241.82 305.18"/><polygon class="cls-365" points="239.22 305.18 281.36 261.36 281.36 264.06 241.82 305.18 239.22 305.18"/><polygon class="cls-366" points="236.62 305.18 281.36 258.66 281.36 261.36 239.22 305.18 236.62 305.18"/><polygon class="cls-367" points="234.02 305.18 281.36 255.95 281.36 258.66 236.62 305.18 234.02 305.18"/><polygon class="cls-368" points="231.42 305.18 281.36 253.26 281.36 255.95 234.02 305.18 231.42 305.18"/><polygon class="cls-369" points="228.82 305.18 281.36 250.55 281.36 253.26 231.42 305.18 228.82 305.18"/><polygon class="cls-370" points="226.23 305.18 281.36 247.85 281.36 250.55 228.82 305.18 226.23 305.18"/><polygon class="cls-371" points="223.63 305.18 281.36 245.15 281.36 247.85 226.23 305.18 223.63 305.18"/><polygon class="cls-372" points="221.03 305.18 281.36 242.45 281.36 245.15 223.63 305.18 221.03 305.18"/><polygon class="cls-372" points="218.43 305.18 281.36 239.75 281.36 242.45 221.03 305.18 218.43 305.18"/><polygon class="cls-373" points="215.83 305.18 281.36 237.05 281.36 239.75 218.43 305.18 215.83 305.18"/><polygon class="cls-374" points="215.56 302.76 281.36 234.34 281.36 237.05 215.83 305.18 215.56 305.18 215.56 302.76"/><polygon class="cls-374" points="215.56 300.06 281.36 231.64 281.36 234.34 215.56 302.76 215.56 300.06"/><polygon class="cls-375" points="215.56 297.36 281.36 228.94 281.36 231.64 215.56 300.06 215.56 297.36"/><polygon class="cls-376" points="215.56 294.66 281.36 226.24 281.36 228.94 215.56 297.36 215.56 294.66"/><polygon class="cls-377" points="215.56 291.95 281.36 223.53 281.36 226.24 215.56 294.66 215.56 291.95"/><polygon class="cls-378" points="215.56 289.25 281.36 220.84 281.36 223.53 215.56 291.95 215.56 289.25"/><polygon class="cls-379" points="215.56 286.55 281.36 218.13 281.36 220.84 215.56 289.25 215.56 286.55"/><polygon class="cls-380" points="215.56 283.85 281.36 215.43 281.36 218.13 215.56 286.55 215.56 283.85"/><polygon class="cls-380" points="215.56 281.15 281.36 212.73 281.36 215.43 215.56 283.85 215.56 281.15"/><polygon class="cls-381" points="215.56 278.44 281.36 210.02 281.36 212.73 215.56 281.15 215.56 278.44"/><polygon class="cls-382" points="215.56 275.74 281.36 207.32 281.36 210.02 215.56 278.44 215.56 275.74"/><polygon class="cls-383" points="215.56 273.04 281.36 204.62 281.36 207.32 215.56 275.74 215.56 273.04"/><polygon class="cls-384" points="215.56 270.34 281.36 201.92 281.36 204.62 215.56 273.04 215.56 270.34"/><polygon class="cls-385" points="215.56 267.64 281.36 199.22 281.36 201.92 215.56 270.34 215.56 267.64"/><polygon class="cls-386" points="215.56 264.94 281.36 196.52 281.36 199.22 215.56 267.64 215.56 264.94"/><polygon class="cls-387" points="215.56 262.24 281.36 193.81 281.36 196.52 215.56 264.94 215.56 262.24"/><polygon class="cls-388" points="215.56 259.54 281.36 191.11 281.36 193.81 215.56 262.24 215.56 259.54"/><polygon class="cls-388" points="215.56 256.83 281.36 188.41 281.36 191.11 215.56 259.54 215.56 256.83"/><polygon class="cls-389" points="215.56 254.13 281.36 185.71 281.36 188.41 215.56 256.83 215.56 254.13"/><polygon class="cls-390" points="215.56 251.43 281.36 183.01 281.36 185.71 215.56 254.13 215.56 251.43"/><polygon class="cls-391" points="215.56 248.72 281.36 180.3 281.36 183.01 215.56 251.43 215.56 248.72"/><polygon class="cls-391" points="215.56 246.02 281.36 177.6 281.36 180.3 215.56 248.72 215.56 246.02"/><polygon class="cls-392" points="215.56 243.32 281.36 174.9 281.36 177.6 215.56 246.02 215.56 243.32"/><polygon class="cls-393" points="215.56 240.62 281.36 172.2 281.36 174.9 215.56 243.32 215.56 240.62"/><polygon class="cls-393" points="215.56 237.92 281.36 169.5 281.36 172.2 215.56 240.62 215.56 237.92"/><polygon class="cls-394" points="215.56 235.22 281.36 166.8 281.36 169.5 215.56 237.92 215.56 235.22"/><polygon class="cls-395" points="215.56 232.51 281.36 164.09 281.36 166.8 215.56 235.22 215.56 232.51"/><polygon class="cls-396" points="215.56 229.81 281.36 161.39 281.36 164.09 215.56 232.51 215.56 229.81"/><polygon class="cls-397" points="215.56 227.11 281.36 158.69 281.36 161.39 215.56 229.81 215.56 227.11"/><polygon class="cls-398" points="215.56 224.41 281.36 155.99 281.36 158.69 215.56 227.11 215.56 224.41"/><polygon class="cls-398" points="215.56 221.71 281.36 153.28 281.36 155.99 215.56 224.41 215.56 221.71"/><polygon class="cls-399" points="215.56 219 281.36 150.58 281.36 153.28 215.56 221.71 215.56 219"/><polygon class="cls-399" points="215.56 216.3 281.36 147.88 281.36 150.58 215.56 219 215.56 216.3"/><polygon class="cls-400" points="215.56 213.6 281.36 145.18 281.36 147.88 215.56 216.3 215.56 213.6"/><polygon class="cls-401" points="215.56 210.9 281.36 142.48 281.36 145.18 215.56 213.6 215.56 210.9"/><polygon class="cls-402" points="215.56 208.2 281.36 139.77 281.36 142.48 215.56 210.9 215.56 208.2"/><polygon class="cls-402" points="215.56 205.49 281.36 137.07 281.36 139.77 215.56 208.2 215.56 205.49"/><polygon class="cls-403" points="215.56 202.79 279.44 136.37 281.36 136.37 281.36 137.07 215.56 205.49 215.56 202.79"/><polygon class="cls-404" points="215.56 200.09 276.84 136.37 279.44 136.37 215.56 202.79 215.56 200.09"/><polygon class="cls-404" points="215.56 197.39 274.24 136.37 276.84 136.37 215.56 200.09 215.56 197.39"/><polygon class="cls-405" points="215.56 194.69 271.64 136.37 274.24 136.37 215.56 197.39 215.56 194.69"/><polygon class="cls-406" points="215.56 191.99 269.05 136.37 271.64 136.37 215.56 194.69 215.56 191.99"/><polygon class="cls-407" points="215.56 189.28 266.44 136.37 269.05 136.37 215.56 191.99 215.56 189.28"/><polygon class="cls-408" points="215.56 186.58 263.85 136.37 266.44 136.37 215.56 189.28 215.56 186.58"/><polygon class="cls-409" points="215.56 183.88 261.25 136.37 263.85 136.37 215.56 186.58 215.56 183.88"/><polygon class="cls-410" points="215.56 181.18 258.65 136.37 261.25 136.37 215.56 183.88 215.56 181.18"/><polygon class="cls-411" points="215.56 178.47 256.05 136.37 258.65 136.37 215.56 181.18 215.56 178.47"/><polygon class="cls-412" points="215.56 175.77 253.45 136.37 256.05 136.37 215.56 178.47 215.56 175.77"/><polygon class="cls-413" points="215.56 173.07 250.85 136.37 253.45 136.37 215.56 175.77 215.56 173.07"/><polygon class="cls-414" points="215.56 170.37 248.26 136.37 250.85 136.37 215.56 173.07 215.56 170.37"/><polygon class="cls-415" points="215.56 167.67 245.66 136.37 248.26 136.37 215.56 170.37 215.56 167.67"/><polygon class="cls-416" points="215.56 164.97 243.06 136.37 245.66 136.37 215.56 167.67 215.56 164.97"/><polygon class="cls-417" points="215.56 162.26 240.46 136.37 243.06 136.37 215.56 164.97 215.56 162.26"/><polygon class="cls-418" points="215.56 159.56 237.86 136.37 240.46 136.37 215.56 162.26 215.56 159.56"/><polygon class="cls-419" points="215.56 156.86 235.26 136.37 237.86 136.37 215.56 159.56 215.56 156.86"/><polygon class="cls-420" points="215.56 154.16 232.67 136.37 235.26 136.37 215.56 156.86 215.56 154.16"/><polygon class="cls-421" points="215.56 151.45 230.07 136.37 232.67 136.37 215.56 154.16 215.56 151.45"/><polygon class="cls-422" points="215.56 148.75 227.47 136.37 230.07 136.37 215.56 151.45 215.56 148.75"/><polygon class="cls-423" points="215.56 146.05 224.87 136.37 227.47 136.37 215.56 148.75 215.56 146.05"/><polygon class="cls-424" points="215.56 143.35 222.27 136.37 224.87 136.37 215.56 146.05 215.56 143.35"/><polygon class="cls-425" points="215.56 140.65 219.68 136.37 222.27 136.37 215.56 143.35 215.56 140.65"/><polygon class="cls-425" points="215.56 137.94 217.08 136.37 219.68 136.37 215.56 140.65 215.56 137.94"/><polygon class="cls-426" points="217.08 136.37 215.56 137.94 215.56 136.37 217.08 136.37"/></g><g class="cls-347"><path class="cls-427" d="M258.71,295.9A35.23,35.23,0,0,0,271,287.64a37,37,0,0,0,9.73-19v0h0a38.87,38.87,0,0,0,.63-6.88V136.37c-22.74,3.42-26.23,37.26-26.23,37.26v76.52c0,44.94-39.57,52.85-39.57,52.85S239.62,305.18,258.71,295.9Z"/></g><g class="cls-347"><path class="cls-427" d="M258.71,295.9A35.23,35.23,0,0,0,271,287.64a37,37,0,0,0,9.73-19v0h0a38.87,38.87,0,0,0,.63-6.88V136.37c-13.54,3.65-15.65,37.24-15.65,37.24V241.3c0,58.79-50.15,61.7-50.15,61.7S239.62,305.18,258.71,295.9Z"/></g><g class="cls-428"><polygon class="cls-429" points="208.21 273.4 222.23 269.81 222.23 273.4 208.21 273.4"/><polygon class="cls-429" points="203.82 273.4 222.23 268.68 222.23 269.81 208.21 273.4 203.82 273.4"/><polygon class="cls-430" points="199.43 273.4 222.23 267.55 222.23 268.68 203.82 273.4 199.43 273.4"/><polygon class="cls-431" points="195.04 273.4 222.23 266.42 222.23 267.55 199.43 273.4 195.04 273.4"/><polygon class="cls-432" points="190.65 273.4 222.23 265.29 222.23 266.42 195.04 273.4 190.65 273.4"/><polygon class="cls-433" points="186.26 273.4 222.23 264.17 222.23 265.29 190.65 273.4 186.26 273.4"/><polygon class="cls-434" points="181.87 273.4 222.23 263.04 222.23 264.17 186.26 273.4 181.87 273.4"/><polygon class="cls-435" points="177.48 273.4 222.23 261.91 222.23 263.04 181.87 273.4 177.48 273.4"/><polygon class="cls-435" points="173.08 273.4 222.23 260.79 222.23 261.91 177.48 273.4 173.08 273.4"/><polygon class="cls-436" points="168.69 273.4 222.23 259.66 222.23 260.79 173.08 273.4 168.69 273.4"/><polygon class="cls-437" points="164.31 273.4 222.23 258.53 222.23 259.66 168.69 273.4 164.31 273.4"/><polygon class="cls-438" points="159.91 273.4 222.23 257.41 222.23 258.53 164.31 273.4 159.91 273.4"/><polygon class="cls-438" points="155.52 273.4 222.23 256.28 222.23 257.41 159.91 273.4 155.52 273.4"/><polygon class="cls-439" points="151.13 273.4 222.01 255.2 222.23 256.1 222.23 256.28 155.52 273.4 151.13 273.4"/><polygon class="cls-440" points="148.92 273.4 148.79 272.88 221.76 254.15 222.01 255.2 151.13 273.4 148.92 273.4"/><polygon class="cls-441" points="148.79 272.88 148.54 271.82 221.5 253.08 221.76 254.15 148.79 272.88"/><polygon class="cls-441" points="148.54 271.82 148.28 270.75 221.25 252.02 221.5 253.08 148.54 271.82"/><polygon class="cls-442" points="148.28 270.75 148.03 269.69 221 250.96 221.25 252.02 148.28 270.75"/><polygon class="cls-443" points="148.03 269.69 147.77 268.63 220.74 249.9 221 250.96 148.03 269.69"/><polygon class="cls-443" points="147.77 268.63 147.52 267.57 220.49 248.83 220.74 249.9 147.77 268.63"/><polygon class="cls-444" points="147.52 267.57 147.26 266.51 220.23 247.77 220.49 248.83 147.52 267.57"/><polygon class="cls-445" points="147.26 266.51 147.01 265.44 219.98 246.71 220.23 247.77 147.26 266.51"/><polygon class="cls-446" points="147.01 265.44 146.75 264.38 219.72 245.65 219.98 246.71 147.01 265.44"/><polygon class="cls-446" points="146.75 264.38 146.5 263.32 219.47 244.59 219.72 245.65 146.75 264.38"/><polygon class="cls-447" points="146.5 263.32 146.25 262.26 219.22 243.52 219.47 244.59 146.5 263.32"/><polygon class="cls-448" points="146.25 262.26 145.99 261.2 218.96 242.46 219.22 243.52 146.25 262.26"/><polygon class="cls-449" points="145.99 261.2 145.74 260.13 218.71 241.4 218.96 242.46 145.99 261.2"/><polygon class="cls-449" points="145.74 260.13 145.48 259.07 218.45 240.34 218.71 241.4 145.74 260.13"/><polygon class="cls-450" points="145.48 259.07 145.23 258.01 218.2 239.28 218.45 240.34 145.48 259.07"/><polygon class="cls-451" points="145.23 258.01 144.98 256.95 217.94 238.21 218.2 239.28 145.23 258.01"/><polygon class="cls-452" points="144.98 256.95 144.72 255.88 217.69 237.15 217.94 238.21 144.98 256.95"/><polygon class="cls-452" points="144.72 255.88 144.47 254.82 217.44 236.09 217.69 237.15 144.72 255.88"/><polygon class="cls-453" points="144.47 254.82 144.21 253.76 217.18 235.03 217.44 236.09 144.47 254.82"/><polygon class="cls-454" points="144.21 253.76 143.96 252.7 216.93 233.96 217.18 235.03 144.21 253.76"/><polygon class="cls-455" points="143.96 252.7 143.7 251.64 216.67 232.9 216.93 233.96 143.96 252.7"/><polygon class="cls-455" points="143.7 251.64 143.45 250.57 216.42 231.84 216.67 232.9 143.7 251.64"/><polygon class="cls-456" points="143.45 250.57 143.19 249.51 216.16 230.78 216.42 231.84 143.45 250.57"/><polygon class="cls-457" points="143.19 249.51 142.94 248.46 215.91 229.72 216.16 230.78 143.19 249.51"/><polygon class="cls-458" points="142.94 248.46 142.69 247.39 215.66 228.65 215.91 229.72 142.94 248.46"/><polygon class="cls-459" points="142.69 247.39 142.43 246.33 215.4 227.59 215.66 228.65 142.69 247.39"/><polygon class="cls-460" points="142.43 246.33 142.18 245.26 215.15 226.53 215.4 227.59 142.43 246.33"/><polygon class="cls-461" points="142.18 245.26 141.92 244.2 214.89 225.47 215.15 226.53 142.18 245.26"/><polygon class="cls-462" points="141.92 244.2 141.67 243.14 214.64 224.41 214.89 225.47 141.92 244.2"/><polygon class="cls-463" points="141.67 243.14 141.41 242.08 214.38 223.34 214.64 224.41 141.67 243.14"/><polygon class="cls-464" points="141.41 242.08 141.16 241.02 214.13 222.28 214.38 223.34 141.41 242.08"/><polygon class="cls-464" points="141.16 241.02 140.91 239.96 213.88 221.22 214.13 222.28 141.16 241.02"/><polygon class="cls-465" points="140.91 239.96 140.65 238.9 213.62 220.16 213.88 221.22 140.91 239.96"/><polygon class="cls-466" points="140.65 238.9 140.4 237.83 213.37 219.09 213.62 220.16 140.65 238.9"/><polygon class="cls-467" points="140.4 237.83 140.37 237.7 140.37 236.71 213.11 218.03 213.37 219.09 140.4 237.83"/><polygon class="cls-468" points="140.37 235.59 212.86 216.97 213.11 218.03 140.37 236.71 140.37 235.59"/><polygon class="cls-469" points="140.37 234.46 212.6 215.91 212.86 216.97 140.37 235.59 140.37 234.46"/><polygon class="cls-470" points="140.37 233.33 212.35 214.85 212.6 215.91 140.37 234.46 140.37 233.33"/><polygon class="cls-470" points="140.37 232.2 212.09 213.78 212.35 214.85 140.37 233.33 140.37 232.2"/><polygon class="cls-471" points="140.37 231.07 211.84 212.72 212.09 213.78 140.37 232.2 140.37 231.07"/><polygon class="cls-472" points="140.37 229.94 211.59 211.66 211.84 212.72 140.37 231.07 140.37 229.94"/><polygon class="cls-473" points="140.37 228.82 211.33 210.6 211.59 211.66 140.37 229.94 140.37 228.82"/><polygon class="cls-473" points="140.37 227.69 211.08 209.53 211.33 210.6 140.37 228.82 140.37 227.69"/><polygon class="cls-474" points="140.37 226.56 210.82 208.48 211.08 209.53 140.37 227.69 140.37 226.56"/><polygon class="cls-475" points="140.37 225.44 210.57 207.41 210.82 208.48 140.37 226.56 140.37 225.44"/><polygon class="cls-475" points="140.37 224.31 210.31 206.35 210.57 207.41 140.37 225.44 140.37 224.31"/><polygon class="cls-476" points="140.37 223.18 210.06 205.29 210.31 206.35 140.37 224.31 140.37 223.18"/><polygon class="cls-477" points="140.37 222.06 209.81 204.22 210.06 205.29 140.37 223.18 140.37 222.06"/><polygon class="cls-478" points="140.37 220.93 209.55 203.16 209.81 204.22 140.37 222.06 140.37 220.93"/><polygon class="cls-478" points="140.37 219.8 209.3 202.1 209.55 203.16 140.37 220.93 140.37 219.8"/><polygon class="cls-479" points="140.37 218.68 209.04 201.04 209.3 202.1 140.37 219.8 140.37 218.68"/><polygon class="cls-480" points="140.37 217.55 208.79 199.98 209.04 201.04 140.37 218.68 140.37 217.55"/><polygon class="cls-481" points="140.37 216.42 208.53 198.91 208.79 199.98 140.37 217.55 140.37 216.42"/><polygon class="cls-482" points="140.37 215.29 208.28 197.85 208.53 198.91 140.37 216.42 140.37 215.29"/><polygon class="cls-483" points="140.37 214.17 208.02 196.79 208.28 197.85 140.37 215.29 140.37 214.17"/><polygon class="cls-484" points="140.37 213.04 207.77 195.73 208.02 196.79 140.37 214.17 140.37 213.04"/><polygon class="cls-485" points="140.37 211.91 207.52 194.67 207.77 195.73 140.37 213.04 140.37 211.91"/><polygon class="cls-486" points="140.37 210.78 207.26 193.61 207.52 194.67 140.37 211.91 140.37 210.78"/><polygon class="cls-487" points="140.37 209.66 207.01 192.54 207.26 193.61 140.37 210.78 140.37 209.66"/><polygon class="cls-488" points="140.37 208.53 206.75 191.48 207.01 192.54 140.37 209.66 140.37 208.53"/><polygon class="cls-489" points="140.37 207.4 206.5 190.42 206.75 191.48 140.37 208.53 140.37 207.4"/><polygon class="cls-490" points="140.37 206.27 206.24 189.35 206.5 190.42 140.37 207.4 140.37 206.27"/><polygon class="cls-490" points="140.37 205.15 205.99 188.29 206.24 189.35 140.37 206.27 140.37 205.15"/><polygon class="cls-491" points="140.37 204.01 205.74 187.24 205.99 188.29 140.37 205.15 140.37 204.01"/><polygon class="cls-492" points="140.37 202.89 205.48 186.17 205.74 187.24 140.37 204.01 140.37 202.89"/><polygon class="cls-492" points="140.37 201.77 205.23 185.11 205.48 186.17 140.37 202.89 140.37 201.77"/><polygon class="cls-493" points="140.37 200.63 204.97 184.05 205.23 185.11 140.37 201.77 140.37 200.63"/><polygon class="cls-494" points="140.37 199.51 204.72 182.98 204.97 184.05 140.37 200.63 140.37 199.51"/><polygon class="cls-495" points="140.37 198.38 204.47 181.93 204.72 182.98 140.37 199.51 140.37 198.38"/><polygon class="cls-495" points="140.37 197.25 204.21 180.86 204.47 181.93 140.37 198.38 140.37 197.25"/><polygon class="cls-496" points="140.37 196.13 203.96 179.8 204.21 180.86 140.37 197.25 140.37 196.13"/><polygon class="cls-497" points="140.37 195 203.7 178.74 203.96 179.8 140.37 196.13 140.37 195"/><polygon class="cls-498" points="140.37 193.87 203.45 177.68 203.7 178.74 140.37 195 140.37 193.87"/><polygon class="cls-499" points="140.37 192.75 203.19 176.61 203.45 177.68 140.37 193.87 140.37 192.75"/><polygon class="cls-500" points="140.37 191.62 202.94 175.55 203.19 176.61 140.37 192.75 140.37 191.62"/><polygon class="cls-501" points="140.37 190.49 202.68 174.49 202.94 175.55 140.37 191.62 140.37 190.49"/><polygon class="cls-501" points="140.37 189.37 202.43 173.43 202.68 174.49 140.37 190.49 140.37 189.37"/><polygon class="cls-502" points="140.37 188.24 202.18 172.37 202.43 173.43 140.37 189.37 140.37 188.24"/><polygon class="cls-503" points="140.37 187.11 201.92 171.3 202.18 172.37 140.37 188.24 140.37 187.11"/><polygon class="cls-503" points="140.37 185.98 201.67 170.24 201.92 171.3 140.37 187.11 140.37 185.98"/><polygon class="cls-504" points="140.37 184.85 201.41 169.18 201.67 170.24 140.37 185.98 140.37 184.85"/><polygon class="cls-504" points="140.37 183.72 201.16 168.12 201.41 169.18 140.37 184.85 140.37 183.72"/><polygon class="cls-505" points="140.37 182.6 200.9 167.06 201.16 168.12 140.37 183.72 140.37 182.6"/><polygon class="cls-505" points="140.37 181.47 200.65 165.99 200.9 167.06 140.37 182.6 140.37 181.47"/><polygon class="cls-506" points="140.37 180.34 200.4 164.93 200.65 165.99 140.37 181.47 140.37 180.34"/><polygon class="cls-507" points="140.37 179.22 200.14 163.87 200.4 164.93 140.37 180.34 140.37 179.22"/><polygon class="cls-508" points="140.37 178.09 199.89 162.81 200.14 163.87 140.37 179.22 140.37 178.09"/><polygon class="cls-508" points="140.37 176.96 199.63 161.74 199.89 162.81 140.37 178.09 140.37 176.96"/><polygon class="cls-509" points="140.37 175.84 199.38 160.68 199.63 161.74 140.37 176.96 140.37 175.84"/><polygon class="cls-510" points="140.37 174.71 199.12 159.62 199.38 160.68 140.37 175.84 140.37 174.71"/><polygon class="cls-511" points="140.37 173.58 198.87 158.56 199.12 159.62 140.37 174.71 140.37 173.58"/><polygon class="cls-512" points="140.37 172.45 198.62 157.5 198.87 158.56 140.37 173.58 140.37 172.45"/><polygon class="cls-513" points="140.37 171.32 198.36 156.43 198.62 157.5 140.37 172.45 140.37 171.32"/><polygon class="cls-514" points="140.37 170.2 198.11 155.37 198.36 156.43 140.37 171.32 140.37 170.2"/><polygon class="cls-515" points="140.37 169.07 197.85 154.31 198.11 155.37 140.37 170.2 140.37 169.07"/><polygon class="cls-515" points="140.37 167.94 197.6 153.25 197.85 154.31 140.37 169.07 140.37 167.94"/><polygon class="cls-516" points="140.37 166.82 197.34 152.19 197.6 153.25 140.37 167.94 140.37 166.82"/><polygon class="cls-517" points="140.37 165.69 197.09 151.12 197.34 152.19 140.37 166.82 140.37 165.69"/><polygon class="cls-518" points="140.37 164.56 196.83 150.06 197.09 151.12 140.37 165.69 140.37 164.56"/><polygon class="cls-518" points="140.37 163.44 196.58 149 196.83 150.06 140.37 164.56 140.37 163.44"/><polygon class="cls-519" points="140.37 162.31 196.33 147.94 196.58 149 140.37 163.44 140.37 162.31"/><polygon class="cls-520" points="140.37 161.18 196.07 146.87 196.33 147.94 140.37 162.31 140.37 161.18"/><polygon class="cls-521" points="140.37 160.05 195.82 145.81 196.07 146.87 140.37 161.18 140.37 160.05"/><polygon class="cls-522" points="140.37 158.92 195.56 144.75 195.82 145.81 140.37 160.05 140.37 158.92"/><polygon class="cls-522" points="140.37 157.79 195.31 143.69 195.56 144.75 140.37 158.92 140.37 157.79"/><polygon class="cls-523" points="140.37 156.67 195.05 142.63 195.31 143.69 140.37 157.79 140.37 156.67"/><polygon class="cls-524" points="140.37 155.54 194.8 141.56 195.05 142.63 140.37 156.67 140.37 155.54"/><polygon class="cls-525" points="140.37 154.41 194.55 140.5 194.8 141.56 140.37 155.54 140.37 154.41"/><polygon class="cls-526" points="140.37 153.29 194.29 139.44 194.55 140.5 140.37 154.41 140.37 153.29"/><polygon class="cls-526" points="140.37 152.16 194.04 138.38 194.29 139.44 140.37 153.29 140.37 152.16"/><polygon class="cls-527" points="140.37 151.03 193.78 137.32 194.04 138.38 140.37 152.16 140.37 151.03"/><polygon class="cls-528" points="140.37 149.91 193.05 136.38 193.56 136.38 193.78 137.32 140.37 151.03 140.37 149.91"/><polygon class="cls-529" points="140.37 148.78 188.66 136.38 193.05 136.38 140.37 149.91 140.37 148.78"/><polygon class="cls-530" points="140.37 147.65 184.27 136.38 188.66 136.38 140.37 148.78 140.37 147.65"/><polygon class="cls-531" points="140.37 146.53 179.88 136.38 184.27 136.38 140.37 147.65 140.37 146.53"/><polygon class="cls-532" points="140.37 145.4 175.49 136.38 179.88 136.38 140.37 146.53 140.37 145.4"/><polygon class="cls-532" points="140.37 144.27 171.1 136.38 175.49 136.38 140.37 145.4 140.37 144.27"/><polygon class="cls-533" points="140.37 143.14 166.71 136.38 171.1 136.38 140.37 144.27 140.37 143.14"/><polygon class="cls-534" points="140.37 142.01 162.32 136.38 166.71 136.38 140.37 143.14 140.37 142.01"/><polygon class="cls-535" points="140.37 140.89 157.93 136.38 162.32 136.38 140.37 142.01 140.37 140.89"/><polygon class="cls-536" points="140.37 139.76 153.54 136.38 157.93 136.38 140.37 140.89 140.37 139.76"/><polygon class="cls-537" points="140.37 138.63 149.15 136.38 153.54 136.38 140.37 139.76 140.37 138.63"/><polygon class="cls-538" points="140.37 137.5 144.75 136.38 149.15 136.38 140.37 138.63 140.37 137.5"/><polygon class="cls-539" points="144.75 136.38 140.37 137.5 140.37 136.38 144.75 136.38"/></g><g class="cls-347"><path class="cls-427" d="M179,259.74a46.48,46.48,0,0,1-15.64-36v-85a35.19,35.19,0,0,0-12.67,8.43A37.22,37.22,0,0,0,140.37,173v38.65c.42,10.3,3.56,33.87,22.56,50.28a42.86,42.86,0,0,0,22.2,9.6c15,1.86,27.75-1.09,37.1-8.42C222.23,263.13,196.37,275,179,259.74Z"/></g><g class="cls-347"><path class="cls-427" d="M222.23,263.13s-14.28,7.77-30.7,6h-.14a43.51,43.51,0,0,1-4.81-.81c-11-2.44-17-8-17-8h0a43.8,43.8,0,0,1-12.17-16A79.16,79.16,0,0,1,151,220.74c-.09-1.07-.17-2.09-.23-3.05a35.55,35.55,0,0,1-.24-3.63V147.35A37.29,37.29,0,0,0,140.37,173v38.65c.42,10.3,3.56,33.87,22.56,50.28a42.86,42.86,0,0,0,22.2,9.6C200.14,273.41,212.88,270.46,222.23,263.13Z"/></g><path class="cls-16" d="M689.84,148.56v24.29h2.29V161a13.52,13.52,0,0,1,.34-3.54,15,15,0,0,1,.84-2.36,11,11,0,0,1,2.33-3.45,5,5,0,0,1,3.68-1.66c2.24,0,3.72.7,4.52,2.23A12.83,12.83,0,0,1,705,158.3v14.55h2.28V157c0-3.11-.63-5.42-1.9-6.95s-3.26-2.24-6-2.06a9.27,9.27,0,0,0-4.23,1.32,9,9,0,0,0-3.35,4.14v-4.84Zm-16.11,1.53a5.53,5.53,0,0,1,3,.83,7.75,7.75,0,0,1,2.49,2.18,11.58,11.58,0,0,1,1.7,3.45,16.48,16.48,0,0,1,0,8.74,11.57,11.57,0,0,1-1.61,3.41,7.24,7.24,0,0,1-2.54,2.18,7.13,7.13,0,0,1-3.22.74,6.82,6.82,0,0,1-3.25-.78,6.55,6.55,0,0,1-2.46-2.18,11.21,11.21,0,0,1-1.6-3.41,17.79,17.79,0,0,1,0-8.78,9.83,9.83,0,0,1,1.65-3.37,7.9,7.9,0,0,1,2.58-2.23,6.87,6.87,0,0,1,3.3-.78m0-2.19a10.65,10.65,0,0,0-4.27.87,9.48,9.48,0,0,0-3.31,2.54,12.26,12.26,0,0,0-2.15,4.15,18.3,18.3,0,0,0-.76,5.51c0,4,.92,7.16,2.79,9.43a9.19,9.19,0,0,0,7.57,3.41,9,9,0,0,0,4.23-1,8.81,8.81,0,0,0,3.25-2.71,12.81,12.81,0,0,0,2.08-4.11,17.73,17.73,0,0,0,.71-5.11,17,17,0,0,0-.84-5.5,12.25,12.25,0,0,0-2.2-4.07,9.81,9.81,0,0,0-3.26-2.54,9.14,9.14,0,0,0-3.84-.91m-19,24.9h2.32V145.36h-2.32Zm0-31.55h2.32v-2.66h-2.32Zm-8.21,30.33a5.93,5.93,0,0,1-1.94-.22,1.58,1.58,0,0,1-.93-.74,2.65,2.65,0,0,1-.3-1.4c0-.56,0-1.3,0-2.22V151.13h4.57V149h-4.57v-7.61h-2.29V149h-3.84v2.14h3.84v17.75c0,1.83.39,3.09,1.11,3.79a5.36,5.36,0,0,0,3.51,1.1,7.29,7.29,0,0,0,1.34,0l.86-.14v-2.09Zm-15.81-7.43a17.44,17.44,0,0,1-.13,2.32,5.74,5.74,0,0,1-.59,1.7,7.68,7.68,0,0,1-3.09,2.54,17.18,17.18,0,0,1-4,1.09,5.17,5.17,0,0,1-2.37-.13,3.47,3.47,0,0,1-1.57-1,5.12,5.12,0,0,1-.84-1.74,9,9,0,0,1-.25-2.1,4.19,4.19,0,0,1,1.65-3.67,11.82,11.82,0,0,1,5.33-1.75,17.84,17.84,0,0,0,3.51-.83,5.72,5.72,0,0,0,2.33-1.71ZM635.5,171a2.08,2.08,0,0,1-1.83-.74,3.94,3.94,0,0,1-.5-2.19v-12a11,11,0,0,0-.52-3.84,6.21,6.21,0,0,0-1.22-2.14,7.65,7.65,0,0,0-2.75-1.66,10.48,10.48,0,0,0-3.63-.57c-2.8,0-4.91.69-6.39,2.06a7.41,7.41,0,0,0-2.33,5.46h2.42a6.69,6.69,0,0,1,1.85-3.89,6.29,6.29,0,0,1,4.36-1.4,6.42,6.42,0,0,1,4.23,1.22,4.77,4.77,0,0,1,1.52,3.89,3.42,3.42,0,0,1-1.31,2.62,6.63,6.63,0,0,1-3.34,1.35l-3.26.57a86.34,86.34,0,0,0-3.38.87,5.65,5.65,0,0,0-3,2.41,7.6,7.6,0,0,0-1,4.1,6.71,6.71,0,0,0,1.74,4.94,6.56,6.56,0,0,0,4.86,1.71,15.23,15.23,0,0,0,4.73-.79,9.39,9.39,0,0,0,4.19-3,3.63,3.63,0,0,0,.81,2,3,3,0,0,0,1.86,1.14,5.54,5.54,0,0,0,.89.08,3.49,3.49,0,0,0,1,0Zm-37.91-22.42H595l8.08,24.26h2.84l7.91-24.26h-2.33l-6.89,22.16c-.39-1.26-.72-2.31-1-3.24s-.51-1.65-.77-2.35-.46-1.4-.66-2-.34-1.32-.6-2.05Zm-14.75,1.5a5.49,5.49,0,0,1,2.95.83,7.89,7.89,0,0,1,2.5,2.18,11.57,11.57,0,0,1,1.69,3.45,16.48,16.48,0,0,1,0,8.74,11.33,11.33,0,0,1-1.61,3.41,6.91,6.91,0,0,1-5.75,2.92,6.86,6.86,0,0,1-3.26-.78,6.6,6.6,0,0,1-2.45-2.18,11,11,0,0,1-1.61-3.41,18.11,18.11,0,0,1,0-8.78A9.83,9.83,0,0,1,577,153.1a7.83,7.83,0,0,1,2.59-2.23,6.87,6.87,0,0,1,3.3-.78m0-2.19a10.69,10.69,0,0,0-4.28.87,9.45,9.45,0,0,0-3.3,2.54,12.28,12.28,0,0,0-2.16,4.15,18.63,18.63,0,0,0-.76,5.51q0,6,2.8,9.43a9.16,9.16,0,0,0,7.57,3.41,9.2,9.2,0,0,0,7.48-3.67,13,13,0,0,0,2.08-4.11,18.08,18.08,0,0,0,.71-5.11,17,17,0,0,0-.84-5.5,12.25,12.25,0,0,0-2.2-4.07,9.81,9.81,0,0,0-3.26-2.54,9.17,9.17,0,0,0-3.84-.91m-33.89.66v24.29h2.29V161a13.52,13.52,0,0,1,.34-3.54,15,15,0,0,1,.84-2.36,11,11,0,0,1,2.33-3.45,5,5,0,0,1,3.67-1.66c2.25,0,3.73.7,4.53,2.23a12.84,12.84,0,0,1,1.18,6.07v14.55h2.29V157c0-3.11-.63-5.42-1.9-6.95s-3.26-2.24-6-2.06a9.39,9.39,0,0,0-4.24,1.32A9,9,0,0,0,551,153.4v-4.84Zm-24.78,0v24.29h2.28V161a13.52,13.52,0,0,1,.34-3.54,16.09,16.09,0,0,1,.84-2.36,11,11,0,0,1,2.33-3.45,5,5,0,0,1,3.68-1.66c2.24,0,3.72.7,4.53,2.23a12.84,12.84,0,0,1,1.18,6.07v14.55h2.28V157c0-3.11-.63-5.42-1.9-6.95s-3.26-2.24-6-2.06a9.39,9.39,0,0,0-4.23,1.32,9,9,0,0,0-3.34,4.14v-4.84Zm-9.86,24.24h2.33V145.36h-2.33Zm0-31.55h2.33v-2.66h-2.33Zm-19.62,7.05-4.4,14.33-2.75,7.82L485.25,163l-4.81-14.68h-2.72l8.8,24.81a30,30,0,0,1-2.28,6,3,3,0,0,1-2.71,1.71h-1a3,3,0,0,1-.68,0l-.21-.13v2a6.41,6.41,0,0,0,.93.17,7.63,7.63,0,0,0,1,0,4.2,4.2,0,0,0,2.37-.69,8.6,8.6,0,0,0,2-1.89c.17-.35.34-.69.51-1.09s.38-.79.59-1.31.51-1.31.84-2.22.73-2.06,1.19-3.5l8.12-23.94Zm-23,23.28a6,6,0,0,1-2-.22,1.64,1.64,0,0,1-.93-.74,2.75,2.75,0,0,1-.29-1.4c-.05-.56-.05-1.3-.05-2.22V151.13h4.57V149H468.5v-7.61h-2.28V149h-3.85v2.14h3.85v17.75c0,1.83.38,3.09,1.1,3.79a5.4,5.4,0,0,0,3.51,1.1,7.51,7.51,0,0,0,1.36,0l.84-.14v-2.09ZM455.9,172.8h2.32V145.36H455.9Zm0-31.55h2.32v-2.66H455.9Zm-6.81,13.51a7.16,7.16,0,0,0-2.29-5.11c-1.35-1.18-3.38-1.75-6-1.75a8.61,8.61,0,0,0-5.88,1.84,6.25,6.25,0,0,0-2.08,5.06,5.16,5.16,0,0,0,.68,2.76,4.06,4.06,0,0,0,1.82,1.65,4.21,4.21,0,0,0,.76.53,7.21,7.21,0,0,0,1,.43,12.37,12.37,0,0,0,1.65.62c.67.22,1.61.53,2.74.87a18.45,18.45,0,0,1,4.83,2.1,3.31,3.31,0,0,1,1.39,2.88,4.23,4.23,0,0,1-1.82,3.55,7.27,7.27,0,0,1-4.48,1.39,8.33,8.33,0,0,1-4.82-1.26,4.33,4.33,0,0,1-1.6-4.16H432.3c0,2.59.76,4.5,2.29,5.77s3.67,1.88,6.59,1.88a9.68,9.68,0,0,0,6.56-2,7.08,7.08,0,0,0,2.32-5.68,4.56,4.56,0,0,0-.72-2.49,7.46,7.46,0,0,0-1.81-1.88,11.68,11.68,0,0,0-2.67-1.44c-1-.4-2.07-.78-3.17-1.14-1.31-.39-2.41-.78-3.25-1.09a7.69,7.69,0,0,1-2-1,3.21,3.21,0,0,1-1-1.18,4.27,4.27,0,0,1-.25-1.62,3.63,3.63,0,0,1,1.52-3,6.26,6.26,0,0,1,4-1.18c2.15,0,3.67.43,4.48,1.26a5.11,5.11,0,0,1,1.35,3.37Zm-18.35-7a9.38,9.38,0,0,0-2.29.4,6,6,0,0,0-2.07,1.22,10.79,10.79,0,0,0-2.08,2.4,30.5,30.5,0,0,0-2.07,3.81v-7h-2.11v24.29h2.32V161.23a9.51,9.51,0,0,1,.73-3.89,16.37,16.37,0,0,1,1.9-3.32,12.3,12.3,0,0,1,2.2-2.28,4.75,4.75,0,0,1,3-1h.17a1,1,0,0,0,.34.13Zm-26.15,2.37a6.27,6.27,0,0,1,5,2.35,11.64,11.64,0,0,1,2.32,6.6H397.19a11.9,11.9,0,0,1,2.42-6.73,6.33,6.33,0,0,1,5-2.22m7.11,16a7.06,7.06,0,0,1-2.33,4.07,6.47,6.47,0,0,1-4.31,1.44,7.25,7.25,0,0,1-5.84-2.58c-1.39-1.7-2.07-4.28-2-7.77h17.09a24.64,24.64,0,0,0-.25-3.63,14.08,14.08,0,0,0-.68-3.11A10.34,10.34,0,0,0,410,149.6a8.45,8.45,0,0,0-5.28-1.7,8.55,8.55,0,0,0-4.1,1,8.84,8.84,0,0,0-3.13,2.67,12,12,0,0,0-2,4.15,18.77,18.77,0,0,0-.68,5.29c0,4.1.89,7.29,2.67,9.52a8.75,8.75,0,0,0,7.36,3.32,9,9,0,0,0,6.21-2.05,10.05,10.05,0,0,0,3-5.69Zm-35.27-17.48h-2.58l8.07,24.26h2.84l7.91-24.26h-2.33l-6.89,22.16c-.38-1.26-.72-2.31-1-3.24s-.51-1.65-.76-2.35-.46-1.4-.68-2-.34-1.32-.59-2.05ZM367,172.8h2.33V145.36H367Zm0-31.55h2.33v-2.66H367Zm-24.83,7.31v24.29h2.29V161a14.08,14.08,0,0,1,.33-3.54,17.47,17.47,0,0,1,.85-2.36,11.15,11.15,0,0,1,2.32-3.45A5,5,0,0,1,351.6,150c2.24,0,3.72.7,4.52,2.23a12.71,12.71,0,0,1,1.19,6.07v14.55h2.28V157c0-3.11-.63-5.42-1.9-6.95s-3.26-2.24-6-2.06a9.35,9.35,0,0,0-4.23,1.32,9,9,0,0,0-3.35,4.14v-4.84ZM314,138.81h-2.36V159a33.65,33.65,0,0,0,.38,5.82,13.53,13.53,0,0,0,1.26,3.63,9.09,9.09,0,0,0,3.94,4.15,14.51,14.51,0,0,0,6.43,1.22,16.11,16.11,0,0,0,6-1,8,8,0,0,0,4-3.32,10,10,0,0,0,.89-1.93,13.23,13.23,0,0,0,.63-2.18,22.55,22.55,0,0,0,.38-2.75c0-1,.08-2.23.08-3.58V138.81H333.2V159a29.46,29.46,0,0,1-.09,3,18.68,18.68,0,0,1-.2,2.19,10,10,0,0,1-.39,1.74,10.39,10.39,0,0,1-.59,1.44,6.51,6.51,0,0,1-3.17,3,12.38,12.38,0,0,1-5.25,1,11.27,11.27,0,0,1-5.08-1.13,7.07,7.07,0,0,1-3.21-3.11,9.51,9.51,0,0,1-1.05-3.36A45.14,45.14,0,0,1,314,159Z"/></g></g></svg>