<?xml version="1.0" encoding="iso-8859-1"?>
<!-- Generator: Adobe Illustrator 19.0.0, SVG Export Plug-In . SVG Version: 6.00 Build 0)  -->
<svg version="1.1" id="Capa_1" xmlns="http://www.w3.org/2000/svg" xmlns:xlink="http://www.w3.org/1999/xlink" x="0px" y="0px"
	 viewBox="0 0 384.672 384.672" style="enable-background:new 0 0 384.672 384.672;" xml:space="preserve">
<g>
	<g>
		<path d="M322.444,107.48l7.736-7.736c8.209-8.231,8.209-21.553,0-29.784l-2.08-2.08l56.568-56.568L373.356,0l-56.568,56.536
			l-2.072-2.072c-8.341-7.939-21.443-7.939-29.784,0l-7.736,7.736L248.94,33.944L79.204,203.648L62.236,186.68L28.3,220.616
			l45.248,45.256l-22.624,22.664c-9.388-9.375-24.596-9.375-33.984,0L0.004,305.472l79.2,79.2l16.936-16.936
			c9.373-9.372,9.375-24.568,0.003-33.941c-0.001-0.001-0.002-0.002-0.003-0.003l22.632-22.632l45.248,45.256l33.944-33.944
			l-16.968-16.968l169.736-169.768L322.444,107.48z M296.244,65.808c2.005-1.947,5.195-1.947,7.2,0l15.464,15.464
			c1.977,1.977,1.977,5.183,0,7.16l-7.736,7.736l-22.624-22.632L296.244,65.808z M84.86,356.384L84.86,356.384l-5.656,5.656
			l-56.568-56.568l5.656-5.656c3.122-3.126,8.188-3.129,11.314-0.006c0.002,0.002,0.004,0.004,0.006,0.006l45.248,45.256
			C87.983,348.196,87.983,353.26,84.86,356.384z M84.86,322.44l-22.624-22.624l22.624-22.624l22.632,22.624L84.86,322.44z
			 M164.052,333.76L50.924,220.616l11.312-11.28L175.372,322.44L164.052,333.76z M169.74,294.136l-79.2-79.2l16.976-16.968
			l39.592,39.6l11.312-11.312l-39.592-39.608l16.968-16.968l16.968,16.976l11.312-11.312l-16.968-16.976l16.976-16.968l39.592,39.6
			l11.32-11.32l-39.656-39.544l16.968-16.976l17,16.976l11.32-11.312l-16.968-17l16.968-16.968l39.6,39.6l11.312-11.312l-39.6-39.6
			l17-17.008l79.2,79.2L169.74,294.136z"/>
	</g>
</g>
<g>
</g>
<g>
</g>
<g>
</g>
<g>
</g>
<g>
</g>
<g>
</g>
<g>
</g>
<g>
</g>
<g>
</g>
<g>
</g>
<g>
</g>
<g>
</g>
<g>
</g>
<g>
</g>
<g>
</g>
</svg>
