<svg id="레이어_1" data-name="레이어 1" xmlns="http://www.w3.org/2000/svg" viewBox="0 0 1262.99 412.42"><defs><style>.cls-1{fill:#231815;}.cls-2{fill:#c1c2c2;}.cls-3{fill:#b60005;}</style></defs><path class="cls-1" d="M449.34,156.5s-3-.71-2-2.87c0,0,3.94-7.17,2.86-12.73,0,0,0-4.89-2.73-6.92-1.72-1.28-2.42-.4-2.65-.17-.71.7-.35.81-1.14,2.41-1.32,2.68-1.75,3.62-10.68,11.5-7.95,7-6.73,6.32-9.42,8.41-2,1.52-9.15,8.13-8.88,13.37.24,4.57,2.72,7.49,7.29,6.73,4.31-.72,6.2-3.73,8.35-5.35,0,0,3.54-3.26,5.35-3.84,3.22-1,7.56-1,10.71,2.77,2.87,3.45,2.47,6.15-1.3,11.26a11.67,11.67,0,0,1-1.35,2.87,31.06,31.06,0,0,1-10.62,6.14c-4.17,1.21-3.86-.31-5.64-.13s-7.22,3.58-8.48,5.92-1.25,3.85,2.33,6.72c2.49,2,5.2,2,11.11,0,4.79-1.64,15.47-8.07,19.56-13.81,3.62-5.11,7.11-12,6.08-20.81C457.22,160.28,451.84,157.26,449.34,156.5Z"/><path class="cls-1" d="M493.81,153.63c-.27-11.3-5.11-18.07-7-19.67-.68-.58-3.18-.81-5.24.85-2.82,2.25-2.42,6.58-2.42,8.74s.44,2.35-.1,4.51-.53,2.47-.31,10.11c0,1.61-1.88,3.23-4.83,3.23s-10.49.57-10.49.57.75-.26-1.4.28-.72,2.68-.19,4a6.34,6.34,0,0,0,3.39,3.83c1.75.76,3.79,2.18,6.26,2.35s6.73,0,6.73,0c1.61.54,2.15.47,2.42,1.81s.77,23.44,1.84,26.39,3,3,4.34,3.27,2.16,2,5.66-1.38c4.52-4.4,2.41-8.61,1.88-17.22S493.81,153.63,493.81,153.63Z"/><path class="cls-1" d="M542.54,166.1c6.07-.75,9.93-6.43,11.9-11.27s4.73-16.87.66-20.7c-3.05-2.87-4.84-2.56-5.38-2.56-1.34,0-3.54.88-4.61.76a47.81,47.81,0,0,0-8.66-.35,83,83,0,0,1-13.63-.9c-1.61-.36-3.41-1.48-4.84-2s-3.5,1.43-3.5,1.43-4.57,4.81-4.57,8,1.43,5.47,7.71,5.83,7.52-1.25,10-2.15,11-4.9,14.21-2.74S541,154,533,166.79c-.07,0,.52-.33,5.46-1C540.57,165.51,541.12,166.28,542.54,166.1Z"/><path class="cls-1" d="M606.42,145.24a13.75,13.75,0,0,0-.75-2.14c-.89-2-5.22-1.56-6.65-1.75a22,22,0,0,0-6,0,20.94,20.94,0,0,1-6.33.42c-2.21-.24-4.47-.18-6.46-.37-1.12-.1-2.12-.14-2.78-.16a46.33,46.33,0,0,0-.8-5.27c-.33-1.22-.53-11.47-6.45-11.47-1.71,0-2.51,1.79-3.23,2.32a21.84,21.84,0,0,0-3.23,10.41c-.36,6.27.53,18.65.72,20.8a5.61,5.61,0,0,0,3,4.61c1.45.53,3.06.53,4.31.9a4.43,4.43,0,0,0,4.12-1.33c2.11-2,1.79-2.38,2-4.72.17-2.11.19-8.14.19-9.29.5,0,1.36.11,2.85.28,3.22.35,5.86,3,8,4.3s8.28,1.51,9.41,1.31c1.87-.35,3.21-1.52,4.95-2,4.85-1.27,4.19-3.23,3.82-3.95A11,11,0,0,1,606.42,145.24Z"/><path class="cls-1" d="M572.86,168.78l-6.64-1.08a3.79,3.79,0,0,0-1.26-2.56,3.38,3.38,0,0,0-3.4.43c-.67.47-6.19.74-8.62,2-.79.43-3.62.8-6,2.46-2.59,1.84-11.34,8.63-9.28,23.68,1.68,12.27,14.46,15.56,17.58,16,4.93.72,17.58.71,24.32-4.48,7.51-5.79,7.6-13.43,7.06-20.07C586.1,178.26,579.84,170.39,572.86,168.78Zm.89,25.76c-4.48,5.12-13.09,4.89-18.52,2.24-5.91-2.88-6.81-9.89-4-15.54a10.37,10.37,0,0,1,8.12-5.91c6.11-.36,6.19,0,6.19,0,6.64,1.41,7.27,3.7,8.47,5.2C574.76,181.41,579,188.57,573.75,194.54Z"/><path class="cls-1" d="M659.79,186.42c-3.24,1.34-3.32,1.87-6.18,1.87s-1.37.28-3.83-.32l-3.54-.84c-2.32-.54-7.89-1.43-8.06-9.5-.2-8.61-.73-17,.71-18.65s.77-3.16,1-4.41,1.8-1.8,2.69-1.61a19.22,19.22,0,0,0,5,.77,25.26,25.26,0,0,1,3.77-.77c.91-.07,2.88.53,5.39-1.62,0,0,4.3-3.31,4.48-5.81s-.51-5.73-6.1-5.73a97.78,97.78,0,0,1-12.56-.73c-2.41-.34-4.29-.54-6.09-.71a6.84,6.84,0,0,0-7,1.61c-2.33,2.33-1.87,3.81-1.07,5.11,1.25,2.06,5.64,3.77,5.37,4.84s-2.42,2.42-3,3.23-1.62,2.16-1.07,3.5,0,3-1.34,4.3S627,165.26,627,166.6l.27,18.75s-2.15,13.53,19.9,13.8c0,0,10.69-.1,14.71-1.31,1.61-.48,2.09-1.93,3.17-3.06.78-.81.81-3.49.55-4.78C665,187.49,662.3,185.36,659.79,186.42Z"/><path class="cls-1" d="M707,141.77c-.11-.42.29-6.67-2.34-7-2.87-.36-2.67.12-4.3.3a3,3,0,0,0-3.22,3.53c.17,3.77-1.08,7.47-1.08,10.34,0,1.51.61,18.17,1,24.35-2.57.14-5.85.19-7.88.2-.22-12.75-1-31.34-4.77-33.88-2.86-1.94-3.64-3.05-6.11-2.52-1.25.27-2.14.77-2.41,1.58,0,0-1,1.48,0,5.11.78,3,.31,29.55.57,35.19s0,18.49,1.34,19.3a3.74,3.74,0,0,0,4.84-.43c1.89-1.61,5.39-.3,7-1.89.69-.67,0-7.56-.27-10.52,0-.25,0-.78,0-1.51.51-.23,1.18-.52,2.11-.91a12.1,12.1,0,0,1,6.2-.37c.25,5.47.51,11.33.62,11.66.18.54.35,5,5.2,5,5.92,0,6.82-1.62,7.89-7s-1.73-19.3-2-27.43A197.92,197.92,0,0,0,707,141.77Z"/><path class="cls-1" d="M760.74,131.54c1.35.53,5.65,1.08,7-3.23s-1.35-6.72-2.69-8.34-6.19-2.69-9.69-.8c0,0-3.74,2.59-1.34,5.92C756.07,128,759.4,131,760.74,131.54Z"/><path class="cls-1" d="M761.81,186.54s4.84-1,6.64-2.28c1.36-.94,3.58-2.33,4.84-2.51s5.38-3.23,6.63-8.6-.7-16-8.78-21.88a42,42,0,0,0-7.35-3.77c-2.87-.89,3.06-1.43,4.13-1.43s4.84.54,6.09-2.33.59-2.15,1.73-3.59c.89-1.14.62-2.62-1.55-4.3a11.87,11.87,0,0,0-6.82-2.52c-3-.18-10.76-.18-13.45-.35s-11.47-.54-11.47-.54-7.17-.54-7,4.66.72,8.06,5.56,9.51a39.69,39.69,0,0,0,8.31,1.61s-6,2.87-10.28,11.66c-2.9,5.91-3.23,16,3.59,21.51C749.24,186.79,756.25,186.9,761.81,186.54Zm-11.47-21.11a8.1,8.1,0,0,1,7.53-8.3c9-.84,12.69,5.06,13.27,8.84.72,4.66-.84,6.4-1.73,6.76a29.34,29.34,0,0,0-4.31,1.44c-1.25.72-.77,1.66-2.75,2a8,8,0,0,1-6.44-1.3C753.57,173.26,750.2,171.71,750.34,165.43Z"/><path class="cls-1" d="M821.9,156.82c-4.48-2.68-8.26-2-16-2.68-5.86-.55-9-2.32-10.35-3.41-.06-4.41-.11-8.29-.24-10-.35-4.84.36-13.09-3.41-18.47-3.43-4.91-5.65-1-5.69-1a20.76,20.76,0,0,1-1.6,4.71c-.73,1.08-1.92,3.48-1.56,4.56,0,0,.25,22,1,33.64.9,14.71,1.25,17.76,3.94,17.57a7.51,7.51,0,0,0,5.37-2.92c1.63-2,3.41-3.89,2.76-8.2-.27-1.74-.38-6.57-.46-11.92,3,.29,3.39.55,6.14,3.13a19,19,0,0,0,13.09,5.67c7.19.26,9-2.4,9.32-3.87C824.47,162.64,825.67,159.1,821.9,156.82Z"/><path class="cls-1" d="M803.78,187.31s-1.52.13-3.23.23a16.75,16.75,0,0,1-5.91-.53c-1.44-.55-10.4-.78-17.23-.59a92.29,92.29,0,0,0-19.36,2.86c-4.65,1.09-4.31,3.41-4.48,4.13,0,0-.9,4.48,5.56,4.13,5-.29,5.92-3.16,12.9-3.16s17.23-2.1,21.34-1.56,5.39,1.48,5.57,5.26,0,11.65,0,11.65.54,4.17,3.76,3.81a8.35,8.35,0,0,0,6.09-3.27c2-2.21,1.63-9.52,1.63-11.3S811,189.46,803.78,187.31Z"/><path class="cls-1" d="M871.59,143.86c2.69,0,2.61.66,4.14.77a53.32,53.32,0,0,0,9-.77c3.4-.48,11.78-.36,13,1.08s3.64,3.46,4.17,14.75c.61,12.75.72,14.35,2.51,16.32s1.61,1.8,3.59,2.15,4.08.26,5.13-4.84c0,0,.78-6.45,1.68-10s1.28-7.09,0-13.27c-1.08-5.2-4.51-11.6-15.06-13.68-6.1-1.21-5.91-.54-8.61-1.07s-11.83.05-15.42-.31-8.11-1.07-9.92-1.07c-1.2,0-2,1.61-2.15,2.86a3.71,3.71,0,0,0,1.07,4.25A9.49,9.49,0,0,0,871.59,143.86Z"/><path class="cls-1" d="M850.63,174.76A5.86,5.86,0,0,0,854,176c1.62-.08,2.69-2.15,3.59-2.69a15.36,15.36,0,0,0,3.65-3.23,1.53,1.53,0,0,0-.19-2.33c-.72-.72-1.32-4.12-1.85-5.92s-3.58-3.68-5-3.86-2.52.77-2.88,3.64a7.91,7.91,0,0,1-1.8,4.3c-1.61,1.79-1.61,5.25-.89,6.68A4.69,4.69,0,0,0,850.63,174.76Z"/><path class="cls-1" d="M939.27,183.91c-.2-1.08-2-1.44-3.82-1.81s-2.52-1.06-4.32-1.43-16.85.31-20.62.31c-2.17,0-13.36-.83-27.57-.85a8.14,8.14,0,0,0,1.76-1.61,16,16,0,0,1,3.95-3.58c.7-.54,2.48-8.69.17-11.3-2.69-3-5.07-5.4-6.1-5.92a3.84,3.84,0,0,0-5.56,3.23,8.08,8.08,0,0,1-1.8,3.59,11.39,11.39,0,0,0-.89,7,48.87,48.87,0,0,1,1.43,6.1,19.53,19.53,0,0,0,.59,2.54,248.84,248.84,0,0,0-27,1.76,16.48,16.48,0,0,1-5.73.17c-2.33-.53-3.22-2.94-6.46-1.43a20.79,20.79,0,0,0-2.51,2.7c-1.08,1.43-.53,2.15-.89,2.86s-1.62,2.87.89,4,3.95,2,5.57,2,3.76.95,5.73.77,6.81-1.66,10-2,32.82-2.57,39.09-2.21,30.67,1.14,34.78,1.85,4.49-.16,6.47-1.43A6.58,6.58,0,0,0,939.27,183.91Z"/><path class="cls-1" d="M439.75,268.4c0-4.23-2.28-7.13-7.39-9.39l-1.08-.53c-6.21-2.91-12.56-7-12.56-14.83,0-9.36,6.71-15.4,17.08-15.4a24.3,24.3,0,0,1,6.63.9l.84.23,2.9.84v.05c0,.89,1.43,11.64,1.43,11.64l-3,.28c-1.3-4.78-3.86-10.47-9.83-10.47a6.59,6.59,0,0,0-6.56,6.89c0,3.58,2.21,6,7.63,8.48l1.59.75c7.36,3.47,12.26,7.48,12.26,15.82,0,9.59-7.31,16-18.18,16a25.12,25.12,0,0,1-7.76-1.29l-4.53-1.81v0c0-.41-.89-5.22-.89-5.22L417,264s2.22-.5,2.8-.67c.89,2.51,5,12.85,13.06,12.85C437,276.21,439.75,273.14,439.75,268.4Z"/><path class="cls-1" d="M473.88,237.3c-13.42,0-20.44,10.89-20.44,21.66,0,11.9,8.24,20.53,19.61,20.53,11.71,0,19.9-8.88,19.9-21.61C493,246,484.93,237.3,473.88,237.3Zm.29,39.41c-6,0-10.14-8.18-10.14-19.89,0-10.17,3.41-16.75,8.66-16.75,4.81,0,9.66,6.14,9.66,19.82C482.35,271.05,479.6,276.71,474.17,276.71Z"/><path class="cls-1" d="M497.55,258.83c0-14.87,11.7-21.53,23.31-21.53a47.72,47.72,0,0,1,11.3,1.62s.79,11,.79,11-1.83.15-2.23.17c-1.84-8.19-6.85-10-10.76-10-6.85,0-11.81,7.39-11.81,17.57,0,9.49,3.84,19.07,12.41,19.07,1.66,0,2.68-.62,2.68-3.7v-6c0-4.5-.39-4.9-6.6-5.4v-2.46h19.71v2.7c-3.05.36-3.45.72-3.45,5.16v4.5l.35,5.77c-3.89.88-8.48,2.22-13.22,2.22C506.16,279.49,497.55,271.58,497.55,258.83Z"/><path class="cls-1" d="M619.14,258.83c0-14.87,11.7-21.53,23.31-21.53a47.61,47.61,0,0,1,11.29,1.62s.8,11,.8,11-1.82.15-2.22.17c-1.86-8.19-6.86-10-10.77-10-6.84,0-11.81,7.39-11.81,17.57,0,9.49,3.83,19.07,12.41,19.07,1.65,0,2.68-.62,2.68-3.7v-6c0-4.5-.4-4.9-6.6-5.4v-2.46h19.7v2.7c-3,.36-3.45.72-3.45,5.16v4.5l.35,5.77c-3.89.88-8.48,2.22-13.22,2.22C627.75,279.49,619.14,271.58,619.14,258.83Z"/><path class="cls-1" d="M569.38,270.27,562,249s-3.79-11.07-3.79-11.67c0,0,0,0,0,0s-3.91.83-3.93.72c0,0-11.93,32.43-11.93,32.43-2,5.33-3,5.67-6,5.89v2.43H550v-2.18l-1.62-.2c-1.23-.14-2.06-.34-2.44-.92s-.16-1.66.26-3c0,0,1.78-6,2-6.19l10,.16,2.14,6.39c.44,1.29.61,2.09.26,2.66s-.86.71-2,.87c0,0-1.53.22-1.57.05v2.39h18.32v-2.18C572.36,276.19,571.3,275.78,569.38,270.27ZM549,262.65l4.12-12.73s4,12.73,3.75,13Z"/><path class="cls-1" d="M609.31,255.63l-.48-12c-.32-2.29-1.84-3.21-6-3.42v-2.05h15v2.31c-3-.11-4.66.9-5,3.16l-.49,12v23.14h-4.87c0-.16-22.43-29.9-22.43-29.9v12.28l.47,12c.32,2.29,1.85,3.21,6,3.42v2.18h-14.6v-2.43c2.68.11,4.3-1,4.59-3.17l.48-12V249.61c0-4.54-.09-5.5-1.36-7.36-1-1.44-2.47-1.86-4.59-2.06v-2.05h13c0,.16,20.2,26.73,20.2,26.73Z"/><path class="cls-1" d="M752.85,255.63l-.48-12c-.32-2.29-1.85-3.21-6-3.42v-2.05h14.94v2.19c-3-.1-4.65,1-5,3.28l-.48,12v23.14h-4.88c0-.16-22.41-29.9-22.41-29.9v12.28l.47,12c.31,2.29,1.84,3.21,5.95,3.42v2.18H720.47v-2.43c2.68.11,4.3-1,4.59-3.17l.49-12V249.61c0-4.54-.1-5.5-1.37-7.36-1-1.44-2.47-1.86-4.59-2.06v-2.05h13c0,.16,20.21,26.73,20.21,26.73Z"/><path class="cls-1" d="M711,254.65v-4.57a126.41,126.41,0,0,0-.58-14.09c-.37-2.76-2.24-3.76-7.21-4v-2.73h18.09v2.87c-3.52-.08-5.48,1.18-5.85,3.85a127,127,0,0,0-.59,14.1V256c0,8-1.73,14.1-5.15,18.09-3,3.42-8.33,5.64-13.6,5.64-6,0-10.45-1.34-13.56-4.06-3.76-3.21-5.42-8.63-5.42-17.54V241.36c0-8.2-.38-8.88-5.77-9.36v-2.74h23v2.87c-4.86.24-5.38,1.13-5.38,9.23v15.58c0,11,3.77,17.28,10.33,17.28C706.78,274.22,711,267.27,711,254.65Z"/><path class="cls-1" d="M764.16,278.75v-2.41c4.15-.16,4.72-.89,4.72-7.6V248c0-6.7-.36-7.43-4.72-7.85v-2h19.07v2.16c-4.15.17-4.71,1-4.71,7.71v20.7c0,6.71.34,7.44,4.71,7.85v2.16Z"/><path class="cls-1" d="M809.35,265.82l6-18.49.58-1.8c.66-2,.95-3.36.45-4.15-.4-.63-1.23-.84-2.43-1l-1.69-.08v-2.14h14.17v2.16c-3.26.21-4.28.64-6.67,6.48l-12.09,31.94h-4.19c-.11-.29-11.82-32.3-11.82-32.3-2-5.48-3.16-5.75-6.1-6.14v-2.14h19s0,2.17,0,2.24c0-.18-1.93,0-1.93,0-1,.14-1.67.32-2,.8s-.14,1.32.21,2.53l4.89,13.59,3.35,9.11Z"/><path class="cls-1" d="M827.61,278.75v-2.41c4.63-.16,5.19-.81,5.19-7.6V248c0-6.7-.32-7.33-4.57-7.73v-2.14H856.8l.5,10.16-2.41,0c-.34-3-1-4.73-2-5.77s-2.83-1.51-6.26-1.51h-1c-2.37,0-3.11.08-3.11,2.44v12.11l3.71.25c5.3,0,5.54-.43,6.14-5.26h2.26V265.1h-2.5c-.36-5.37-.57-6-5.9-6h-3.71v10.47c0,3.42.07,5,1.26,5.62s3.1.59,4.83.59c3.19,0,5.37-.66,6.5-2,1-1.12,2-3.38,3-6.54.88.2,2.36.58,2.36.58s-1.77,9.3-2.27,10.9Z"/><path class="cls-1" d="M897.34,274.66l-4.3-6.72s-4.66-8.77-4.66-9.32h0c5-2.07,7.54-5.56,7.54-10.39a9.28,9.28,0,0,0-4.06-7.9c-2.18-1.46-5.15-2.15-9.94-2.15H863.56v2c4.25.42,4.58,1.15,4.58,7.85v20.7c0,6.71-.59,7.44-4.83,7.6v2.41h18.48v-2.16c-4.37-.41-4.7-1.14-4.7-7.85V261h1c1.15,0,2.09.84,2.73,2.41a67.1,67.1,0,0,0,4.93,10.07c2.4,3.67,4.43,5.41,12.62,5.59l2.3.07.28-1.74A6.1,6.1,0,0,1,897.34,274.66Zm-14.57-17.27c-1.18.93-2.7,1.12-4.6,1.12l-1.08-.25V243.84c0-2.64.3-3,2.93-3s6.19,2.21,6.19,8.27C886.21,252.75,885.05,255.52,882.77,257.39Z"/><path class="cls-1" d="M912.37,262.06c-5.1-2.39-10.29-5.7-10.29-12.14,0-7.67,5.68-12.87,14-12.62,0,0,3.34.3,5.41.74a18.6,18.6,0,0,1,3.08.88V239c0,.85,1.16,9.49,1.16,9.49l-2.42.19c-1-3.91-3.14-8.6-8.07-8.6a5.45,5.45,0,0,0-5.42,5.7c0,3,1.82,5,6.28,7l1.3.63c6,2.83,10.06,6.13,10.06,13,0,7.85-6,13.13-14.89,13.13a20.77,20.77,0,0,1-6.36-1.06l-3.72-1.49v0c0-.41-.72-4.26-.72-4.26l-1.12-6a8.86,8.86,0,0,0,2.24-.51c.72,2.06,4.1,10.56,10.75,10.56,3.48,0,5.73-2.54,5.73-6.46,0-3.5-1.89-5.89-6.12-7.76Z"/><path class="cls-1" d="M930.17,278.75v-2.41c4.14-.16,4.7-.89,4.7-7.6V248c0-6.7-.33-7.43-4.7-7.85v-2h19.07v2.28c-4.15.16-4.72.89-4.72,7.59v20.7c0,6.71.34,7.44,4.7,7.85v2.16Z"/><path class="cls-1" d="M952.41,236.55H954c.73,1.43,1.45,1.69,3.09,1.69h23.35c1.67,0,2-.41,3-1.62h1.64s.42,12.42.42,12.42h-2.38c-.64-3.51-1.28-5.28-2.25-6.43S978.3,241,975.07,241h-1.56v27.72c0,6.8.25,7.45,5.48,7.85v2.16H958.38v-2.41c4.78-.16,5.36-.81,5.36-7.6V241.26l-1.25-.24c-3.6,0-5.34.56-6.53,2-.87,1.16-1.12,2.93-1.82,6.06H951.9C952.13,249,952.41,236.55,952.41,236.55Z"/><path class="cls-1" d="M1013.88,243.49c.35-.89.6-1.67.28-2.24s-.84-.68-1.85-.8l-2.4-.13v-2.15H1024v2.15c-3.24.15-4.4,1.06-6.47,4.84l-6.26,12a9.09,9.09,0,0,0-1.21,5.31v6.27c0,6.79.33,7.44,5.47,7.85v2.16H995.18v-2.19c4.68-.16,5.24-1,5.24-7.82v-5.39a16.67,16.67,0,0,0-.72-4.05l-7.37-14.19c-2.17-4.05-2.88-4.39-5.71-4.79v-2.15h18.16v2.15a9.93,9.93,0,0,0-2.38.27c-.66.1-1,.3-1.21.63s0,1.08.38,2l6.55,13.67Z"/><path class="cls-2" d="M368.54,218.66C345.93,160.3,367,112.08,367,112.08L341,83.62H232l-26,28.46s21.1,48.22-1.51,106.58c-3.87,10-12.05,38.45,3,63,17.24,28.06,58.73,46,79,56.62l0-.26v.26c20.28-10.6,61.78-28.56,79-56.62C380.59,257.11,372.42,228.64,368.54,218.66Z"/><path class="cls-3" d="M209.33,237.05l77.1-74.94,78.84,76.61c-.25-1.54-.47-2.39-.47-2.39-1.1-4.31-2.43-8.72-3.85-13.4-5-16.55-11.61-35.34-11.61-62.61,0-15.8,3.22-28.43,7.14-46.79-4.39-4.71-16.34-17.12-20.16-21.23H236.61c-3.82,4.11-15.77,16.52-20.16,21.23,3.93,18.36,7.14,31,7.14,46.79,0,27.27-6.61,46.06-11.61,62.61-1.42,4.68-2.76,9.09-3.85,13.4,0,0-.21.82-.45,2.28Z"/><path class="cls-3" d="M286.43,201.74l-74.1,70a56,56,0,0,0,6.44,10.62c12.1,16.08,33.54,28.5,50.72,37.51,6.92,3.62,12.5,5.48,16.94,8.4v0h0l0,0,0,0v0c4.43-2.92,10-4.78,16.94-8.4,17.17-9,38.62-21.43,50.71-37.51a55.23,55.23,0,0,0,6.43-10.59Z"/><path class="cls-2" d="M236.7,117c0-1.93-.23-2.57-2-2.72v-.64h8.93v.69c-1.79.17-2,.8-2,2.73v24.2c0,1.93.17,2.56,1.94,2.72v.74h-8.85V144c1.76-.14,2-.78,2-2.7Z"/><path class="cls-2" d="M268.45,127.16V117.08c0-1.94.16-2.57-1.48-2.73v-.76h8.3v.76c-1.83.16-2,.79-2,2.73V141.2c0,1.93.2,2.57,2,2.73v.74h-8.74V144c1.82-.14,2-.78,2-2.7V129.36H256.62v11.92c0,1.92.08,2.56,1.77,2.7v.69h-8.6V144c1.77-.15,2-.79,2-2.72V117c0-1.93-.19-2.56-2-2.73v-.69h8.29v.64c-1.61.16-1.45.79-1.45,2.72v10.21Z"/><path class="cls-2" d="M279.25,138.91c.46,1.28,3.6,4.55,8.53,4.55,3.3,0,5.27-2.23,5.27-5.51s-2.24-5.24-5.71-7c-3.67-1.83-8.27-4.53-8.27-9.3s3.77-8.65,10.38-8.65A21.18,21.18,0,0,1,295.7,114c.19,1.85.3,2.86.54,4.28l-.83.14c-.5-1.44-2.17-3.64-6.8-3.64a4.67,4.67,0,0,0-4.76,5c0,2.84,2.2,4.58,5.66,6.29,4.14,2,8.47,4.58,8.47,9.88s-4.54,9.35-11.11,9.35a17.11,17.11,0,0,1-4.39-.58,23.81,23.81,0,0,1-3.25-1.07,38.56,38.56,0,0,1-.79-4.53Z"/><path class="cls-2" d="M309.5,257.29l-2.23,6.6a37.63,37.63,0,0,1,4.59.94L308,275.22a147.33,147.33,0,0,0-14.87-1.63l.45-11.28s1.6,0,3.8.21l.75-6.57c-3.81-.31-7.64-.47-11.51-.47s-7.74.16-11.55.47l.75,6.57c2.2-.22,3.8-.21,3.8-.21l.45,11.28a147.33,147.33,0,0,0-14.87,1.63l-3.87-10.43c2.32-.54,4.59-.89,4.59-.89l-2.24-6.6a143.92,143.92,0,0,0-23.9,5.9c9.76,13.43,19.18,32.09,19.18,32.09a144.42,144.42,0,0,1,55.29,0c4.5-9.61,15.28-27.15,19.17-32.1A145.16,145.16,0,0,0,309.5,257.29Z"/></svg>